<svg width="20" height="20" viewBox="0 0 20 20" fill="none" xmlns="http://www.w3.org/2000/svg">
<g clip-path="url(#clip0_581_652)">
<path fill-rule="evenodd" clip-rule="evenodd" d="M4.16675 6.25C4.16675 5.75754 4.26374 5.26991 4.4522 4.81494C4.64065 4.35997 4.91688 3.94657 5.2651 3.59835C5.61332 3.25013 6.02671 2.97391 6.48169 2.78545C6.93666 2.597 7.42429 2.5 7.91675 2.5C8.4092 2.5 8.89684 2.597 9.35181 2.78545C9.80678 2.97391 10.2202 3.25013 10.5684 3.59835C10.9166 3.94657 11.1928 4.35997 11.3813 4.81494C11.5698 5.26991 11.6667 5.75754 11.6667 6.25C11.6667 7.24456 11.2717 8.19839 10.5684 8.90165C9.86514 9.60491 8.91131 10 7.91675 10C6.92219 10 5.96836 9.60491 5.2651 8.90165C4.56184 8.19839 4.16675 7.24456 4.16675 6.25ZM7.91675 4.16667C7.36421 4.16667 6.83431 4.38616 6.44361 4.77686C6.05291 5.16756 5.83341 5.69747 5.83341 6.25C5.83341 6.80253 6.05291 7.33244 6.44361 7.72314C6.83431 8.11384 7.36421 8.33333 7.91675 8.33333C8.46928 8.33333 8.99919 8.11384 9.38989 7.72314C9.78059 7.33244 10.0001 6.80253 10.0001 6.25C10.0001 5.69747 9.78059 5.16756 9.38989 4.77686C8.99919 4.38616 8.46928 4.16667 7.91675 4.16667ZM7.91675 10.8333C9.57758 10.8333 11.0876 11.34 12.1976 12.055C12.7534 12.4133 13.2292 12.8358 13.5751 13.2967C13.9142 13.7508 14.1667 14.2967 14.1667 14.8808C14.1667 15.51 13.8751 16.0142 13.4467 16.3783C13.0426 16.72 12.5159 16.9417 11.9717 17.0942C10.8776 17.4 9.43008 17.5 7.91675 17.5C6.40341 17.5 4.95591 17.4 3.86258 17.0942C3.31758 16.9417 2.79091 16.72 2.38758 16.3783C1.95758 16.015 1.66675 15.51 1.66675 14.8808C1.66675 14.2958 1.91925 13.7508 2.25841 13.2975C2.60425 12.8358 3.08008 12.4125 3.63591 12.0558C4.74591 11.3392 6.25591 10.8333 7.91675 10.8333ZM7.91675 12.5C6.58591 12.5 5.38758 12.91 4.53758 13.4567C4.11258 13.73 3.79591 14.025 3.59258 14.2958C3.38425 14.5742 3.33341 14.7758 3.33341 14.8808C3.33341 14.9425 3.34591 15.0058 3.46425 15.1058C3.60841 15.2292 3.87591 15.3675 4.31091 15.4892C5.17758 15.7308 6.43841 15.8333 7.91675 15.8333C9.39508 15.8333 10.6559 15.7308 11.5226 15.4892C11.9576 15.3675 12.2251 15.2292 12.3692 15.1058C12.4876 15.0058 12.5001 14.9425 12.5001 14.8808C12.5001 14.7758 12.4492 14.5742 12.2409 14.2958C12.0376 14.025 11.7209 13.73 11.2959 13.4567C10.4459 12.91 9.24758 12.5 7.91675 12.5ZM15.0001 10.8333C16.1001 10.8333 17.0984 11.1967 17.8334 11.7092C18.5184 12.1867 19.1667 12.94 19.1667 13.8092C19.1667 14.2983 18.9559 14.7033 18.6351 14.9975C18.3376 15.2708 17.9609 15.4375 17.5984 15.5475C16.8734 15.7667 15.9401 15.8333 15.0001 15.8333H14.8309C14.9392 15.5433 15.0001 15.225 15.0001 14.8808C14.999 14.6942 14.9823 14.5136 14.9501 14.3392L14.9109 14.1667H15.0001C15.9009 14.1667 16.6334 14.0983 17.1159 13.9525C17.3342 13.8858 17.4467 13.8192 17.4951 13.7808C17.4709 13.6825 17.3409 13.3975 16.8801 13.0767C16.4785 12.8031 16.022 12.6206 15.5425 12.542C15.063 12.4634 14.5721 12.4906 14.1042 12.6217C13.7009 12.1426 13.2278 11.7268 12.7009 11.3883C13.4126 11.0239 14.2006 10.8337 15.0001 10.8333ZM12.5001 7.5C12.5001 6.83696 12.7635 6.20107 13.2323 5.73223C13.7012 5.26339 14.337 5 15.0001 5C15.6631 5 16.299 5.26339 16.7678 5.73223C17.2367 6.20107 17.5001 6.83696 17.5001 7.5C17.5001 8.16304 17.2367 8.79893 16.7678 9.26777C16.299 9.73661 15.6631 10 15.0001 10C14.337 10 13.7012 9.73661 13.2323 9.26777C12.7635 8.79893 12.5001 8.16304 12.5001 7.5ZM15.0001 6.66667C14.7791 6.66667 14.5671 6.75446 14.4108 6.91074C14.2545 7.06702 14.1667 7.27899 14.1667 7.5C14.1667 7.72101 14.2545 7.93297 14.4108 8.08926C14.5671 8.24554 14.7791 8.33333 15.0001 8.33333C15.2211 8.33333 15.4331 8.24554 15.5893 8.08926C15.7456 7.93297 15.8334 7.72101 15.8334 7.5C15.8334 7.27899 15.7456 7.06702 15.5893 6.91074C15.4331 6.75446 15.2211 6.66667 15.0001 6.66667Z" fill="#4E5F7A"/>
</g>
<defs>
<clipPath id="clip0_581_652">
<rect width="20" height="20" fill="white"/>
</clipPath>
</defs>
</svg>
