<svg width="20" height="20" viewBox="0 0 20 20" fill="none" xmlns="http://www.w3.org/2000/svg">
<g clip-path="url(#clip0_581_949)">
<path d="M1.66667 10.17C1.66667 8.26249 1.66667 7.30916 2.1 6.51916C2.53167 5.72832 3.3225 5.23832 4.90333 4.25666L6.57 3.22249C8.24083 2.18499 9.07667 1.66666 10 1.66666C10.9233 1.66666 11.7583 2.18499 13.43 3.22249L15.0967 4.25666C16.6775 5.23832 17.4683 5.72832 17.9008 6.51916C18.3333 7.30999 18.3333 8.26249 18.3333 10.1692V11.4375C18.3333 14.6875 18.3333 16.3133 17.3567 17.3233C16.38 18.3333 14.8092 18.3333 11.6667 18.3333H8.33333C5.19083 18.3333 3.61917 18.3333 2.64333 17.3233C1.6675 16.3133 1.66667 14.6883 1.66667 11.4375V10.17Z" stroke="#4E5F7A" stroke-width="1.5"/>
<path d="M10 12.5V15" stroke="#4E5F7A" stroke-width="1.5" stroke-linecap="round"/>
</g>
<defs>
<clipPath id="clip0_581_949">
<rect width="20" height="20" fill="white"/>
</clipPath>
</defs>
</svg>
