<svg width="20" height="20" viewBox="0 0 20 20" fill="none" xmlns="http://www.w3.org/2000/svg">
<path d="M10.0001 18.3333C5.39758 18.3333 1.66675 14.6025 1.66675 9.99996C1.66675 5.39746 5.39758 1.66663 10.0001 1.66663C14.6026 1.66663 18.3334 5.39746 18.3334 9.99996C18.3334 14.6025 14.6026 18.3333 10.0001 18.3333ZM10.0001 16.6666C11.7682 16.6666 13.4639 15.9642 14.7141 14.714C15.9644 13.4638 16.6667 11.7681 16.6667 9.99996C16.6667 8.23185 15.9644 6.53616 14.7141 5.28591C13.4639 4.03567 11.7682 3.33329 10.0001 3.33329C8.23197 3.33329 6.53628 4.03567 5.28604 5.28591C4.03579 6.53616 3.33341 8.23185 3.33341 9.99996C3.33341 11.7681 4.03579 13.4638 5.28604 14.714C6.53628 15.9642 8.23197 16.6666 10.0001 16.6666ZM10.0001 14.1666C9.77907 14.1666 9.5671 14.0788 9.41082 13.9225C9.25454 13.7663 9.16675 13.5543 9.16675 13.3333C9.16675 13.1123 9.25454 12.9003 9.41082 12.744C9.5671 12.5878 9.77907 12.5 10.0001 12.5C10.2211 12.5 10.4331 12.5878 10.5893 12.744C10.7456 12.9003 10.8334 13.1123 10.8334 13.3333C10.8334 13.5543 10.7456 13.7663 10.5893 13.9225C10.4331 14.0788 10.2211 14.1666 10.0001 14.1666ZM11.0634 11.485C10.8893 11.6211 10.6681 11.6825 10.4487 11.6556C10.2293 11.6287 10.0296 11.5158 9.89341 11.3416C9.75727 11.1675 9.69588 10.9464 9.72276 10.7269C9.74965 10.5075 9.86259 10.3078 10.0367 10.1716L10.3651 9.91496C10.495 9.81411 10.6038 9.6886 10.6851 9.54562C10.7665 9.40265 10.8188 9.24503 10.8391 9.0818C10.8594 8.91856 10.8473 8.75292 10.8035 8.59438C10.7597 8.43583 10.685 8.28749 10.5837 8.15787C10.4824 8.02825 10.3566 7.91989 10.2133 7.83901C10.0701 7.75812 9.9123 7.70631 9.749 7.68653C9.5857 7.66675 9.4201 7.67939 9.2617 7.72374C9.1033 7.76809 8.95521 7.84326 8.82591 7.94496L8.49758 8.20162C8.41173 8.2727 8.31249 8.32584 8.20574 8.35788C8.09899 8.38993 7.9869 8.40024 7.87609 8.38819C7.76529 8.37615 7.65803 8.342 7.56065 8.28776C7.46328 8.23353 7.37778 8.16032 7.3092 8.07245C7.24063 7.98459 7.19038 7.88386 7.16142 7.77623C7.13247 7.6686 7.1254 7.55625 7.14063 7.44584C7.15586 7.33543 7.19309 7.2292 7.25011 7.13343C7.30713 7.03766 7.38278 6.9543 7.47258 6.88829L7.80008 6.63163C8.40964 6.15534 9.18343 5.94071 9.95123 6.03495C10.719 6.12918 11.418 6.52457 11.8942 7.13412C12.3705 7.74368 12.5852 8.51747 12.4909 9.28528C12.3967 10.0531 12.0013 10.752 11.3917 11.2283L11.0634 11.485Z" fill="#4E5F7A"/>
</svg>
