<svg width="20" height="20" viewBox="0 0 20 20" fill="none" xmlns="http://www.w3.org/2000/svg">
<path d="M9.16666 9.16669H6.66666M11.6667 5.83335H6.66666M3.33333 15.5384V6.71169C3.33333 4.33335 3.33333 3.14502 4.06583 2.40585C4.7975 1.66669 5.97666 1.66669 8.33333 1.66669H11.6667C14.0233 1.66669 15.2025 1.66669 15.9342 2.40585C16.6667 3.14419 16.6667 4.33335 16.6667 6.71169V15.5384C16.6667 16.7975 16.6667 17.4275 16.2817 17.6759C15.6525 18.0809 14.68 17.2309 14.1908 16.9225C13.7867 16.6675 13.585 16.5409 13.36 16.5334C13.1183 16.525 12.9125 16.6475 12.4758 16.9225L10.8833 17.9267C10.4533 18.1975 10.2392 18.3334 9.99999 18.3334C9.76083 18.3334 9.54666 18.1975 9.11666 17.9267L7.52499 16.9225C7.11999 16.6675 6.91833 16.5409 6.69416 16.5334C6.45166 16.525 6.24583 16.6475 5.80916 16.9225C5.32 17.2309 4.34749 18.0809 3.71749 17.6759C3.33333 17.4275 3.33333 16.7984 3.33333 15.5384Z" stroke="white" stroke-width="1.5" stroke-linecap="round" stroke-linejoin="round"/>
</svg>
