<svg width="20" height="20" viewBox="0 0 20 20" fill="none" xmlns="http://www.w3.org/2000/svg">
<path d="M9.16659 9.16663H6.66659M11.6666 5.83329H6.66659M3.33325 15.5383V6.71163C3.33325 4.33329 3.33325 3.14496 4.06575 2.40579C4.79742 1.66663 5.97659 1.66663 8.33325 1.66663H11.6666C14.0233 1.66663 15.2024 1.66663 15.9341 2.40579C16.6666 3.14413 16.6666 4.33329 16.6666 6.71163V15.5383C16.6666 16.7975 16.6666 17.4275 16.2816 17.6758C15.6524 18.0808 14.6799 17.2308 14.1908 16.9225C13.7866 16.6675 13.5849 16.5408 13.3599 16.5333C13.1183 16.525 12.9124 16.6475 12.4758 16.9225L10.8833 17.9266C10.4533 18.1975 10.2391 18.3333 9.99992 18.3333C9.76075 18.3333 9.54658 18.1975 9.11658 17.9266L7.52492 16.9225C7.11992 16.6675 6.91825 16.5408 6.69409 16.5333C6.45159 16.525 6.24575 16.6475 5.80909 16.9225C5.31992 17.2308 4.34742 18.0808 3.71742 17.6758C3.33325 17.4275 3.33325 16.7983 3.33325 15.5383Z" stroke="#4E5F7A" stroke-width="1.5" stroke-linecap="round" stroke-linejoin="round"/>
</svg>
