<svg width="20" height="20" viewBox="0 0 20 20" fill="none" xmlns="http://www.w3.org/2000/svg">
<path d="M10 14.1667C9.76389 14.1667 9.56611 14.0867 9.40667 13.9267C9.24722 13.7667 9.16722 13.5689 9.16667 13.3333C9.16611 13.0978 9.24611 12.9 9.40667 12.74C9.56722 12.58 9.765 12.5 10 12.5C10.235 12.5 10.4331 12.58 10.5942 12.74C10.7553 12.9 10.835 13.0978 10.8333 13.3333C10.8317 13.5689 10.7517 13.7669 10.5933 13.9275C10.435 14.0881 10.2372 14.1678 10 14.1667ZM10 10.8333C9.76389 10.8333 9.56611 10.7533 9.40667 10.5933C9.24722 10.4333 9.16722 10.2356 9.16667 10V3.33334C9.16667 3.09723 9.24667 2.89945 9.40667 2.74C9.56667 2.58056 9.76444 2.50056 10 2.5C10.2356 2.49945 10.4336 2.57945 10.5942 2.74C10.7547 2.90056 10.8344 3.09834 10.8333 3.33334V10C10.8333 10.2361 10.7533 10.4342 10.5933 10.5942C10.4333 10.7542 10.2356 10.8339 10 10.8333ZM4.16667 17.5C3.70833 17.5 3.31611 17.3369 2.99 17.0108C2.66389 16.6847 2.50056 16.2922 2.5 15.8333V14.1667C2.5 13.9306 2.58 13.7328 2.74 13.5733C2.9 13.4139 3.09778 13.3339 3.33333 13.3333C3.56889 13.3328 3.76694 13.4128 3.9275 13.5733C4.08806 13.7339 4.16778 13.9317 4.16667 14.1667V15.8333H15.8333V14.1667C15.8333 13.9306 15.9133 13.7328 16.0733 13.5733C16.2333 13.4139 16.4311 13.3339 16.6667 13.3333C16.9022 13.3328 17.1003 13.4128 17.2608 13.5733C17.4214 13.7339 17.5011 13.9317 17.5 14.1667V15.8333C17.5 16.2917 17.3369 16.6842 17.0108 17.0108C16.6847 17.3375 16.2922 17.5006 15.8333 17.5H4.16667Z" fill="#4E5F7A"/>
</svg>
