<svg width="20" height="20" viewBox="0 0 20 20" fill="none" xmlns="http://www.w3.org/2000/svg">
<path fill-rule="evenodd" clip-rule="evenodd" d="M10 6.875C9.1712 6.875 8.37634 7.20424 7.79029 7.79029C7.20424 8.37634 6.875 9.1712 6.875 10C6.875 10.8288 7.20424 11.6237 7.79029 12.2097C8.37634 12.7958 9.1712 13.125 10 13.125C10.8288 13.125 11.6237 12.7958 12.2097 12.2097C12.7958 11.6237 13.125 10.8288 13.125 10C13.125 9.1712 12.7958 8.37634 12.2097 7.79029C11.6237 7.20424 10.8288 6.875 10 6.875ZM8.125 10C8.125 9.50272 8.32254 9.02581 8.67417 8.67417C9.02581 8.32254 9.50272 8.125 10 8.125C10.4973 8.125 10.9742 8.32254 11.3258 8.67417C11.6775 9.02581 11.875 9.50272 11.875 10C11.875 10.4973 11.6775 10.9742 11.3258 11.3258C10.9742 11.6775 10.4973 11.875 10 11.875C9.50272 11.875 9.02581 11.6775 8.67417 11.3258C8.32254 10.9742 8.125 10.4973 8.125 10Z" fill="#4E5F7A"/>
<path fill-rule="evenodd" clip-rule="evenodd" d="M10 1.04163C9.4125 1.04163 8.87667 1.20329 8.29083 1.47496C7.72417 1.73913 7.06667 2.12746 6.24583 2.61413L5.6175 2.98579C4.79583 3.47246 4.14 3.86079 3.63417 4.23246C3.11083 4.61746 2.70917 5.01079 2.41917 5.52663C2.12917 6.04246 1.99833 6.59246 1.93583 7.24579C1.875 7.87913 1.875 8.65496 1.875 9.62996V10.37C1.875 11.345 1.875 12.12 1.93583 12.7533C1.99833 13.4075 2.12917 13.9583 2.41917 14.4733C2.71 14.9891 3.11083 15.3825 3.63417 15.7675C4.14 16.1391 4.79583 16.5275 5.6175 17.0141L6.24583 17.3858C7.06667 17.8725 7.72333 18.2608 8.29083 18.525C8.87667 18.7966 9.4125 18.9583 10 18.9583C10.5875 18.9583 11.1233 18.7966 11.7092 18.525C12.2758 18.2608 12.9333 17.8725 13.7542 17.3858L14.3825 17.0141C15.2042 16.5275 15.86 16.1391 16.3658 15.7675C16.8892 15.3825 17.2908 14.9891 17.5808 14.4733C17.8708 13.9575 18.0017 13.4075 18.0642 12.7541C18.125 12.1208 18.125 11.345 18.125 10.3708V9.62996C18.125 8.65496 18.125 7.87996 18.0642 7.24663C18.0017 6.59246 17.8708 6.04163 17.5808 5.52663C17.29 5.01079 16.8892 4.61746 16.3658 4.23246C15.86 3.86079 15.2042 3.47246 14.3825 2.98579L13.7542 2.61413C12.9333 2.12746 12.2767 1.73913 11.7092 1.47496C11.1233 1.20329 10.5875 1.04163 10 1.04163ZM6.85417 3.70579C7.71 3.19913 8.31333 2.84329 8.8175 2.60913C9.30917 2.38079 9.65917 2.29163 10 2.29163C10.3408 2.29163 10.6917 2.38079 11.1833 2.60829C11.6867 2.84329 12.29 3.19996 13.1458 3.70579L13.7175 4.04496C14.5733 4.55163 15.1758 4.90913 15.6258 5.23996C16.0642 5.56246 16.3175 5.83163 16.4908 6.13996C16.6658 6.44913 16.7658 6.81163 16.82 7.36496C16.8742 7.93163 16.875 8.64829 16.875 9.66163V10.3383C16.875 11.3516 16.875 12.0675 16.82 12.6341C16.7667 13.1883 16.6658 13.5508 16.4908 13.86C16.3175 14.1683 16.0642 14.4375 15.6258 14.76C15.1758 15.0908 14.5733 15.4483 13.7175 15.955L13.1458 16.2941C12.29 16.8008 11.6867 17.1566 11.1825 17.3908C10.6908 17.6191 10.3408 17.7083 10 17.7083C9.65917 17.7083 9.30833 17.6191 8.81667 17.3916C8.31333 17.1566 7.71 16.8 6.85417 16.2941L6.2825 15.955C5.42667 15.4483 4.82417 15.0908 4.37417 14.76C3.93583 14.4375 3.6825 14.1683 3.50917 13.86C3.33417 13.5508 3.23333 13.1883 3.18 12.635C3.12583 12.0683 3.125 11.3516 3.125 10.3383V9.66163C3.125 8.64829 3.125 7.93246 3.18 7.36579C3.23333 6.81163 3.33417 6.44913 3.50833 6.13996C3.6825 5.83163 3.93583 5.56246 4.375 5.23996C4.825 4.90913 5.42667 4.55163 6.28333 4.04496L6.85417 3.70579Z" fill="#4E5F7A"/>
</svg>
