<svg width="20" height="20" viewBox="0 0 20 20" fill="none" xmlns="http://www.w3.org/2000/svg">
<path fill-rule="evenodd" clip-rule="evenodd" d="M10 6.875C9.1712 6.875 8.37634 7.20424 7.79029 7.79029C7.20424 8.37634 6.875 9.1712 6.875 10C6.875 10.8288 7.20424 11.6237 7.79029 12.2097C8.37634 12.7958 9.1712 13.125 10 13.125C10.8288 13.125 11.6237 12.7958 12.2097 12.2097C12.7958 11.6237 13.125 10.8288 13.125 10C13.125 9.1712 12.7958 8.37634 12.2097 7.79029C11.6237 7.20424 10.8288 6.875 10 6.875ZM8.125 10C8.125 9.50272 8.32254 9.02581 8.67417 8.67417C9.02581 8.32254 9.50272 8.125 10 8.125C10.4973 8.125 10.9742 8.32254 11.3258 8.67417C11.6775 9.02581 11.875 9.50272 11.875 10C11.875 10.4973 11.6775 10.9742 11.3258 11.3258C10.9742 11.6775 10.4973 11.875 10 11.875C9.50272 11.875 9.02581 11.6775 8.67417 11.3258C8.32254 10.9742 8.125 10.4973 8.125 10Z" fill="white"/>
<path fill-rule="evenodd" clip-rule="evenodd" d="M10 1.04175C9.4125 1.04175 8.87667 1.20341 8.29083 1.47508C7.72417 1.73925 7.06667 2.12758 6.24583 2.61425L5.6175 2.98591C4.79583 3.47258 4.14 3.86091 3.63417 4.23258C3.11083 4.61758 2.70917 5.01091 2.41917 5.52675C2.12917 6.04258 1.99833 6.59258 1.93583 7.24591C1.875 7.87925 1.875 8.65508 1.875 9.63008V10.3701C1.875 11.3451 1.875 12.1201 1.93583 12.7534C1.99833 13.4076 2.12917 13.9584 2.41917 14.4734C2.71 14.9892 3.11083 15.3826 3.63417 15.7676C4.14 16.1392 4.79583 16.5276 5.6175 17.0142L6.24583 17.3859C7.06667 17.8726 7.72333 18.2609 8.29083 18.5251C8.87667 18.7967 9.4125 18.9584 10 18.9584C10.5875 18.9584 11.1233 18.7967 11.7092 18.5251C12.2758 18.2609 12.9333 17.8726 13.7542 17.3859L14.3825 17.0142C15.2042 16.5276 15.86 16.1392 16.3658 15.7676C16.8892 15.3826 17.2908 14.9892 17.5808 14.4734C17.8708 13.9576 18.0017 13.4076 18.0642 12.7542C18.125 12.1209 18.125 11.3451 18.125 10.3709V9.63008C18.125 8.65508 18.125 7.88008 18.0642 7.24675C18.0017 6.59258 17.8708 6.04175 17.5808 5.52675C17.29 5.01091 16.8892 4.61758 16.3658 4.23258C15.86 3.86091 15.2042 3.47258 14.3825 2.98591L13.7542 2.61425C12.9333 2.12758 12.2767 1.73925 11.7092 1.47508C11.1233 1.20341 10.5875 1.04175 10 1.04175ZM6.85417 3.70591C7.71 3.19925 8.31333 2.84341 8.8175 2.60925C9.30917 2.38091 9.65917 2.29175 10 2.29175C10.3408 2.29175 10.6917 2.38091 11.1833 2.60841C11.6867 2.84341 12.29 3.20008 13.1458 3.70591L13.7175 4.04508C14.5733 4.55175 15.1758 4.90925 15.6258 5.24008C16.0642 5.56258 16.3175 5.83175 16.4908 6.14008C16.6658 6.44925 16.7658 6.81175 16.82 7.36508C16.8742 7.93175 16.875 8.64841 16.875 9.66175V10.3384C16.875 11.3517 16.875 12.0676 16.82 12.6342C16.7667 13.1884 16.6658 13.5509 16.4908 13.8601C16.3175 14.1684 16.0642 14.4376 15.6258 14.7601C15.1758 15.0909 14.5733 15.4484 13.7175 15.9551L13.1458 16.2942C12.29 16.8009 11.6867 17.1567 11.1825 17.3909C10.6908 17.6192 10.3408 17.7084 10 17.7084C9.65917 17.7084 9.30833 17.6192 8.81667 17.3917C8.31333 17.1567 7.71 16.8001 6.85417 16.2942L6.2825 15.9551C5.42667 15.4484 4.82417 15.0909 4.37417 14.7601C3.93583 14.4376 3.6825 14.1684 3.50917 13.8601C3.33417 13.5509 3.23333 13.1884 3.18 12.6351C3.12583 12.0684 3.125 11.3517 3.125 10.3384V9.66175C3.125 8.64841 3.125 7.93258 3.18 7.36591C3.23333 6.81175 3.33417 6.44925 3.50833 6.14008C3.6825 5.83175 3.93583 5.56258 4.375 5.24008C4.825 4.90925 5.42667 4.55175 6.28333 4.04508L6.85417 3.70591Z" fill="white"/>
</svg>
