<svg width="38" height="38" viewBox="0 0 38 38" fill="none" xmlns="http://www.w3.org/2000/svg">
<rect width="38" height="38" rx="5" fill="#0084CE" fill-opacity="0.12"/>
<path d="M26.2388 21.5057L22.4804 19.7129L20.8911 18.9548C21.5852 18.5175 22.1489 17.8426 22.5178 17.0297C22.8258 16.3522 22.985 15.6164 22.9846 14.8721C22.9846 14.4337 22.915 14.0173 22.818 13.6155C22.3452 11.6686 20.8248 10.2344 18.9996 10.2344C17.209 10.2344 15.7116 11.6175 15.2096 13.5089C15.0936 13.9429 15.014 14.3941 15.014 14.8721C15.014 15.7023 15.2079 16.4763 15.5374 17.1495C15.9183 17.9305 16.483 18.5744 17.1704 18.9884L15.6483 19.6971L11.768 21.5043C11.431 21.6622 11.2095 22.0424 11.2095 22.4669V26.7305C11.2095 27.302 11.6076 27.7652 12.0992 27.7652H17.8623V24.5007C17.8633 24.4671 17.8731 24.4343 17.8908 24.4057L17.8884 24.4042L18.8324 22.7693L18.8348 22.7708C18.8684 22.7132 18.9281 22.6724 18.9996 22.6724C19.0712 22.6724 19.1309 22.7129 19.1645 22.7708L19.1655 22.7701L19.1741 22.7852L19.178 22.7919L20.1094 24.4049L20.1082 24.4057C20.1259 24.4344 20.1358 24.4672 20.1368 24.5009V27.7654H25.8999C26.3914 27.7654 26.7898 27.3022 26.7898 26.7308V22.4669C26.7905 22.0438 26.5726 21.6673 26.2388 21.5057ZM20.1089 20.4125L20.1113 20.414L19.1672 22.0489L19.1648 22.0474C19.1483 22.0768 19.1244 22.1013 19.0955 22.1186C19.0665 22.1358 19.0336 22.1451 18.9999 22.1456C18.9662 22.1451 18.9332 22.1358 18.9043 22.1186C18.8754 22.1013 18.8515 22.0768 18.835 22.0474L18.8338 22.0481L18.8242 22.0316L18.8213 22.0268L17.8899 20.4133L17.8908 20.4125C17.8731 20.3838 17.8633 20.351 17.8623 20.3173C17.8623 20.2105 17.9489 20.1238 18.0557 20.1238H19.9436C20.0504 20.1238 20.137 20.2105 20.137 20.3173C20.1366 20.351 20.1269 20.384 20.1089 20.4125Z" fill="#0084CE"/>
</svg>
