<svg width="42" height="42" viewBox="0 0 42 42" fill="none" xmlns="http://www.w3.org/2000/svg">
<g clip-path="url(#clip0_395_3838)">
<path d="M22.8291 9.1738C22.9362 8.87157 23.1023 8.59368 23.3178 8.35631C23.5334 8.11894 23.794 7.92685 24.0845 7.79123C24.375 7.6556 24.6896 7.57916 25.01 7.56636C25.3304 7.55356 25.6501 7.60465 25.9505 7.71666C26.2509 7.82866 26.526 7.99935 26.7598 8.21876C26.9936 8.43817 27.1814 8.70192 27.3122 8.99464C27.443 9.28735 27.5143 9.60318 27.5218 9.92371C27.5294 10.2442 27.473 10.5631 27.3561 10.8616L27.0161 11.7736C27.436 11.4376 27.9564 11.252 28.4941 11.2462C29.0319 11.2405 29.5561 11.4151 29.9831 11.742C30.4101 12.069 30.7153 12.5295 30.85 13.0501C30.9847 13.5708 30.9412 14.1216 30.7264 14.6146L27.4241 22.1846L29.4388 21.0517C29.727 20.8899 30.0442 20.7863 30.3723 20.747C30.7005 20.7077 31.0332 20.7334 31.3514 20.8227C31.6697 20.912 31.9672 21.063 32.227 21.2673C32.4869 21.4716 32.704 21.725 32.8659 22.0132C33.0277 22.3013 33.1313 22.6185 33.1706 22.9467C33.2099 23.2749 33.1842 23.6076 33.0949 23.9258C33.0056 24.244 32.8546 24.5416 32.6503 24.8014C32.446 25.0612 32.1926 25.2783 31.9044 25.4402L31.0389 25.9266L31.03 25.9327C29.3929 26.8775 27.8169 27.9246 26.3114 29.0676C25.6069 29.5526 24.9421 30.1053 24.2777 30.657C23.3305 31.4446 22.3867 32.2292 21.3318 32.8121C20.2574 33.4137 19.062 33.7671 17.8332 33.8465C16.6044 33.9258 15.3735 33.7292 14.2306 33.2709C12.8451 32.7176 11.6354 31.7994 10.7298 30.6138C9.82425 29.4283 9.25667 28.0196 9.08735 26.5374L9.07974 26.5429C8.74391 23.9519 9.50759 21.539 9.9508 20.2612L10.7305 17.9429C10.7464 17.8814 10.7653 17.8207 10.7871 17.761L13.174 10.9719C13.3336 10.518 13.6296 10.1247 14.0215 9.84569C14.4135 9.56671 14.8821 9.41578 15.3631 9.41356C15.8442 9.41135 16.3142 9.55797 16.7087 9.83333C17.1031 10.1087 17.4028 10.4993 17.5666 10.9516L18.0451 9.62873C18.218 9.14862 18.5432 8.73821 18.971 8.46003C19.3988 8.18185 19.9059 8.05116 20.4149 8.08787C20.9239 8.12457 21.4069 8.32666 21.7904 8.66334C22.1739 9.00002 22.4368 9.45284 22.5391 9.9528L22.8291 9.1738Z" fill="#B5887C"/>
<path d="M22.8291 9.1738C22.9362 8.87157 23.1023 8.59368 23.3178 8.35631C23.5334 8.11894 23.794 7.92685 24.0845 7.79123C24.375 7.6556 24.6896 7.57916 25.01 7.56636C25.3304 7.55356 25.6501 7.60465 25.9505 7.71666C26.2509 7.82866 26.526 7.99935 26.7598 8.21876C26.9936 8.43817 27.1814 8.70192 27.3122 8.99464C27.443 9.28735 27.5143 9.60318 27.5218 9.92371C27.5294 10.2442 27.473 10.5631 27.3561 10.8616L27.0161 11.7736C27.436 11.4376 27.9564 11.252 28.4941 11.2462C29.0319 11.2405 29.5561 11.4151 29.9831 11.742C30.4101 12.069 30.7153 12.5295 30.85 13.0501C30.9847 13.5708 30.9412 14.1216 30.7264 14.6146L27.4241 22.1846L29.4388 21.0517C29.727 20.8899 30.0442 20.7863 30.3723 20.747C30.7005 20.7077 31.0332 20.7334 31.3514 20.8227C31.6697 20.912 31.9672 21.063 32.227 21.2673C32.4869 21.4716 32.704 21.725 32.8659 22.0132C33.0277 22.3013 33.1313 22.6185 33.1706 22.9467C33.2099 23.2749 33.1842 23.6076 33.0949 23.9258C33.0056 24.244 32.8546 24.5416 32.6503 24.8014C32.446 25.0612 32.1926 25.2783 31.9044 25.4402L31.0389 25.9266L31.03 25.9327C29.3929 26.8775 27.8169 27.9246 26.3114 29.0676C25.6069 29.5526 24.9421 30.1053 24.2777 30.657C23.3305 31.4446 22.3867 32.2292 21.3318 32.8121C20.2574 33.4137 19.062 33.7671 17.8332 33.8465C16.6044 33.9258 15.3735 33.7292 14.2306 33.2709C12.8451 32.7176 11.6354 31.7994 10.7298 30.6138C9.82425 29.4283 9.25667 28.0196 9.08735 26.5374L9.07974 26.5429C8.74391 23.9519 9.50759 21.539 9.9508 20.2612L10.7305 17.9429C10.7464 17.8814 10.7653 17.8207 10.7871 17.761L13.174 10.9719C13.3336 10.518 13.6296 10.1247 14.0215 9.84569C14.4135 9.56671 14.8821 9.41578 15.3631 9.41356C15.8442 9.41135 16.3142 9.55797 16.7087 9.83333C17.1031 10.1087 17.4028 10.4993 17.5666 10.9516L18.0451 9.62873C18.218 9.14862 18.5432 8.73821 18.971 8.46003C19.3988 8.18185 19.9059 8.05116 20.4149 8.08787C20.9239 8.12457 21.4069 8.32666 21.7904 8.66334C22.1739 9.00002 22.4368 9.45284 22.5391 9.9528L22.8291 9.1738Z" fill="url(#paint0_radial_395_3838)"/>
<path d="M22.8291 9.1738C22.9362 8.87157 23.1023 8.59368 23.3178 8.35631C23.5334 8.11894 23.794 7.92685 24.0845 7.79123C24.375 7.6556 24.6896 7.57916 25.01 7.56636C25.3304 7.55356 25.6501 7.60465 25.9505 7.71666C26.2509 7.82866 26.526 7.99935 26.7598 8.21876C26.9936 8.43817 27.1814 8.70192 27.3122 8.99464C27.443 9.28735 27.5143 9.60318 27.5218 9.92371C27.5294 10.2442 27.473 10.5631 27.3561 10.8616L27.0161 11.7736C27.436 11.4376 27.9564 11.252 28.4941 11.2462C29.0319 11.2405 29.5561 11.4151 29.9831 11.742C30.4101 12.069 30.7153 12.5295 30.85 13.0501C30.9847 13.5708 30.9412 14.1216 30.7264 14.6146L27.4241 22.1846L29.4388 21.0517C29.727 20.8899 30.0442 20.7863 30.3723 20.747C30.7005 20.7077 31.0332 20.7334 31.3514 20.8227C31.6697 20.912 31.9672 21.063 32.227 21.2673C32.4869 21.4716 32.704 21.725 32.8659 22.0132C33.0277 22.3013 33.1313 22.6185 33.1706 22.9467C33.2099 23.2749 33.1842 23.6076 33.0949 23.9258C33.0056 24.244 32.8546 24.5416 32.6503 24.8014C32.446 25.0612 32.1926 25.2783 31.9044 25.4402L31.0389 25.9266L31.03 25.9327C29.3929 26.8775 27.8169 27.9246 26.3114 29.0676C25.6069 29.5526 24.9421 30.1053 24.2777 30.657C23.3305 31.4446 22.3867 32.2292 21.3318 32.8121C20.2574 33.4137 19.062 33.7671 17.8332 33.8465C16.6044 33.9258 15.3735 33.7292 14.2306 33.2709C12.8451 32.7176 11.6354 31.7994 10.7298 30.6138C9.82425 29.4283 9.25667 28.0196 9.08735 26.5374L9.07974 26.5429C8.74391 23.9519 9.50759 21.539 9.9508 20.2612L10.7305 17.9429C10.7464 17.8814 10.7653 17.8207 10.7871 17.761L13.174 10.9719C13.3336 10.518 13.6296 10.1247 14.0215 9.84569C14.4135 9.56671 14.8821 9.41578 15.3631 9.41356C15.8442 9.41135 16.3142 9.55797 16.7087 9.83333C17.1031 10.1087 17.4028 10.4993 17.5666 10.9516L18.0451 9.62873C18.218 9.14862 18.5432 8.73821 18.971 8.46003C19.3988 8.18185 19.9059 8.05116 20.4149 8.08787C20.9239 8.12457 21.4069 8.32666 21.7904 8.66334C22.1739 9.00002 22.4368 9.45284 22.5391 9.9528L22.8291 9.1738Z" fill="url(#paint1_radial_395_3838)"/>
<path d="M22.8291 9.1738C22.9362 8.87157 23.1023 8.59368 23.3178 8.35631C23.5334 8.11894 23.794 7.92685 24.0845 7.79123C24.375 7.6556 24.6896 7.57916 25.01 7.56636C25.3304 7.55356 25.6501 7.60465 25.9505 7.71666C26.2509 7.82866 26.526 7.99935 26.7598 8.21876C26.9936 8.43817 27.1814 8.70192 27.3122 8.99464C27.443 9.28735 27.5143 9.60318 27.5218 9.92371C27.5294 10.2442 27.473 10.5631 27.3561 10.8616L27.0161 11.7736C27.436 11.4376 27.9564 11.252 28.4941 11.2462C29.0319 11.2405 29.5561 11.4151 29.9831 11.742C30.4101 12.069 30.7153 12.5295 30.85 13.0501C30.9847 13.5708 30.9412 14.1216 30.7264 14.6146L27.4241 22.1846L29.4388 21.0517C29.727 20.8899 30.0442 20.7863 30.3723 20.747C30.7005 20.7077 31.0332 20.7334 31.3514 20.8227C31.6697 20.912 31.9672 21.063 32.227 21.2673C32.4869 21.4716 32.704 21.725 32.8659 22.0132C33.0277 22.3013 33.1313 22.6185 33.1706 22.9467C33.2099 23.2749 33.1842 23.6076 33.0949 23.9258C33.0056 24.244 32.8546 24.5416 32.6503 24.8014C32.446 25.0612 32.1926 25.2783 31.9044 25.4402L31.0389 25.9266L31.03 25.9327C29.3929 26.8775 27.8169 27.9246 26.3114 29.0676C25.6069 29.5526 24.9421 30.1053 24.2777 30.657C23.3305 31.4446 22.3867 32.2292 21.3318 32.8121C20.2574 33.4137 19.062 33.7671 17.8332 33.8465C16.6044 33.9258 15.3735 33.7292 14.2306 33.2709C12.8451 32.7176 11.6354 31.7994 10.7298 30.6138C9.82425 29.4283 9.25667 28.0196 9.08735 26.5374L9.07974 26.5429C8.74391 23.9519 9.50759 21.539 9.9508 20.2612L10.7305 17.9429C10.7464 17.8814 10.7653 17.8207 10.7871 17.761L13.174 10.9719C13.3336 10.518 13.6296 10.1247 14.0215 9.84569C14.4135 9.56671 14.8821 9.41578 15.3631 9.41356C15.8442 9.41135 16.3142 9.55797 16.7087 9.83333C17.1031 10.1087 17.4028 10.4993 17.5666 10.9516L18.0451 9.62873C18.218 9.14862 18.5432 8.73821 18.971 8.46003C19.3988 8.18185 19.9059 8.05116 20.4149 8.08787C20.9239 8.12457 21.4069 8.32666 21.7904 8.66334C22.1739 9.00002 22.4368 9.45284 22.5391 9.9528L22.8291 9.1738Z" fill="url(#paint2_radial_395_3838)"/>
<path d="M22.8291 9.1738C22.9362 8.87157 23.1023 8.59368 23.3178 8.35631C23.5334 8.11894 23.794 7.92685 24.0845 7.79123C24.375 7.6556 24.6896 7.57916 25.01 7.56636C25.3304 7.55356 25.6501 7.60465 25.9505 7.71666C26.2509 7.82866 26.526 7.99935 26.7598 8.21876C26.9936 8.43817 27.1814 8.70192 27.3122 8.99464C27.443 9.28735 27.5143 9.60318 27.5218 9.92371C27.5294 10.2442 27.473 10.5631 27.3561 10.8616L27.0161 11.7736C27.436 11.4376 27.9564 11.252 28.4941 11.2462C29.0319 11.2405 29.5561 11.4151 29.9831 11.742C30.4101 12.069 30.7153 12.5295 30.85 13.0501C30.9847 13.5708 30.9412 14.1216 30.7264 14.6146L27.4241 22.1846L29.4388 21.0517C29.727 20.8899 30.0442 20.7863 30.3723 20.747C30.7005 20.7077 31.0332 20.7334 31.3514 20.8227C31.6697 20.912 31.9672 21.063 32.227 21.2673C32.4869 21.4716 32.704 21.725 32.8659 22.0132C33.0277 22.3013 33.1313 22.6185 33.1706 22.9467C33.2099 23.2749 33.1842 23.6076 33.0949 23.9258C33.0056 24.244 32.8546 24.5416 32.6503 24.8014C32.446 25.0612 32.1926 25.2783 31.9044 25.4402L31.0389 25.9266L31.03 25.9327C29.3929 26.8775 27.8169 27.9246 26.3114 29.0676C25.6069 29.5526 24.9421 30.1053 24.2777 30.657C23.3305 31.4446 22.3867 32.2292 21.3318 32.8121C20.2574 33.4137 19.062 33.7671 17.8332 33.8465C16.6044 33.9258 15.3735 33.7292 14.2306 33.2709C12.8451 32.7176 11.6354 31.7994 10.7298 30.6138C9.82425 29.4283 9.25667 28.0196 9.08735 26.5374L9.07974 26.5429C8.74391 23.9519 9.50759 21.539 9.9508 20.2612L10.7305 17.9429C10.7464 17.8814 10.7653 17.8207 10.7871 17.761L13.174 10.9719C13.3336 10.518 13.6296 10.1247 14.0215 9.84569C14.4135 9.56671 14.8821 9.41578 15.3631 9.41356C15.8442 9.41135 16.3142 9.55797 16.7087 9.83333C17.1031 10.1087 17.4028 10.4993 17.5666 10.9516L18.0451 9.62873C18.218 9.14862 18.5432 8.73821 18.971 8.46003C19.3988 8.18185 19.9059 8.05116 20.4149 8.08787C20.9239 8.12457 21.4069 8.32666 21.7904 8.66334C22.1739 9.00002 22.4368 9.45284 22.5391 9.9528L22.8291 9.1738Z" fill="url(#paint3_radial_395_3838)"/>
<path d="M22.8291 9.1738C22.9362 8.87157 23.1023 8.59368 23.3178 8.35631C23.5334 8.11894 23.794 7.92685 24.0845 7.79123C24.375 7.6556 24.6896 7.57916 25.01 7.56636C25.3304 7.55356 25.6501 7.60465 25.9505 7.71666C26.2509 7.82866 26.526 7.99935 26.7598 8.21876C26.9936 8.43817 27.1814 8.70192 27.3122 8.99464C27.443 9.28735 27.5143 9.60318 27.5218 9.92371C27.5294 10.2442 27.473 10.5631 27.3561 10.8616L27.0161 11.7736C27.436 11.4376 27.9564 11.252 28.4941 11.2462C29.0319 11.2405 29.5561 11.4151 29.9831 11.742C30.4101 12.069 30.7153 12.5295 30.85 13.0501C30.9847 13.5708 30.9412 14.1216 30.7264 14.6146L27.4241 22.1846L29.4388 21.0517C29.727 20.8899 30.0442 20.7863 30.3723 20.747C30.7005 20.7077 31.0332 20.7334 31.3514 20.8227C31.6697 20.912 31.9672 21.063 32.227 21.2673C32.4869 21.4716 32.704 21.725 32.8659 22.0132C33.0277 22.3013 33.1313 22.6185 33.1706 22.9467C33.2099 23.2749 33.1842 23.6076 33.0949 23.9258C33.0056 24.244 32.8546 24.5416 32.6503 24.8014C32.446 25.0612 32.1926 25.2783 31.9044 25.4402L31.0389 25.9266L31.03 25.9327C29.3929 26.8775 27.8169 27.9246 26.3114 29.0676C25.6069 29.5526 24.9421 30.1053 24.2777 30.657C23.3305 31.4446 22.3867 32.2292 21.3318 32.8121C20.2574 33.4137 19.062 33.7671 17.8332 33.8465C16.6044 33.9258 15.3735 33.7292 14.2306 33.2709C12.8451 32.7176 11.6354 31.7994 10.7298 30.6138C9.82425 29.4283 9.25667 28.0196 9.08735 26.5374L9.07974 26.5429C8.74391 23.9519 9.50759 21.539 9.9508 20.2612L10.7305 17.9429C10.7464 17.8814 10.7653 17.8207 10.7871 17.761L13.174 10.9719C13.3336 10.518 13.6296 10.1247 14.0215 9.84569C14.4135 9.56671 14.8821 9.41578 15.3631 9.41356C15.8442 9.41135 16.3142 9.55797 16.7087 9.83333C17.1031 10.1087 17.4028 10.4993 17.5666 10.9516L18.0451 9.62873C18.218 9.14862 18.5432 8.73821 18.971 8.46003C19.3988 8.18185 19.9059 8.05116 20.4149 8.08787C20.9239 8.12457 21.4069 8.32666 21.7904 8.66334C22.1739 9.00002 22.4368 9.45284 22.5391 9.9528L22.8291 9.1738Z" fill="url(#paint4_radial_395_3838)"/>
<path d="M11.7059 15.1463L13.1737 10.9729C13.3331 10.5189 13.6291 10.1254 14.021 9.8462C14.4129 9.56704 14.8816 9.41594 15.3627 9.41363C15.8439 9.41131 16.314 9.55789 16.7086 9.83327C17.1031 10.1086 17.4029 10.4993 17.5667 10.9518L17.57 10.9434C17.6482 11.2299 17.7134 11.8021 17.475 12.5166C17.1668 13.4381 16.3825 15.706 16.0273 16.726L11.7059 15.1463Z" fill="url(#paint5_linear_395_3838)"/>
<path d="M11.7059 15.1463L13.1737 10.9729C13.3331 10.5189 13.6291 10.1254 14.021 9.8462C14.4129 9.56704 14.8816 9.41594 15.3627 9.41363C15.8439 9.41131 16.314 9.55789 16.7086 9.83327C17.1031 10.1086 17.4029 10.4993 17.5667 10.9518L17.57 10.9434C17.6482 11.2299 17.7134 11.8021 17.475 12.5166C17.1668 13.4381 16.3825 15.706 16.0273 16.726L11.7059 15.1463Z" fill="url(#paint6_linear_395_3838)"/>
<path d="M11.7059 15.1463L13.1737 10.9729C13.3331 10.5189 13.6291 10.1254 14.021 9.8462C14.4129 9.56704 14.8816 9.41594 15.3627 9.41363C15.8439 9.41131 16.314 9.55789 16.7086 9.83327C17.1031 10.1086 17.4029 10.4993 17.5667 10.9518L17.57 10.9434C17.6482 11.2299 17.7134 11.8021 17.475 12.5166C17.1668 13.4381 16.3825 15.706 16.0273 16.726L11.7059 15.1463Z" fill="url(#paint7_radial_395_3838)"/>
<g filter="url(#filter0_f_395_3838)">
<path d="M15.8406 11.7238C16.1451 10.6932 15.7267 10.2824 15.3061 10.1142C16.6355 10.0729 17.2097 11.077 16.8851 12.1416L15.3206 17.1034L12.7935 18.1627L14.3173 16.4156C14.7737 15.2745 15.5552 12.6878 15.8406 11.7238Z" fill="#C69F88"/>
</g>
<path d="M17.5698 10.9442C17.6483 11.2298 17.7135 11.8019 17.4751 12.5165C17.2848 13.0866 16.2327 16.2447 15.6971 17.883L20.0115 18.3463L22.1552 11.7938C22.3741 11.2007 22.6221 10.5966 22.5397 9.95186C22.437 9.45228 22.174 8.99991 21.7906 8.6636C21.4072 8.32728 20.9244 8.12544 20.4157 8.0888C19.907 8.05215 19.4002 8.1827 18.9726 8.46058C18.5449 8.73846 18.2198 9.14846 18.0466 9.62817L17.5698 10.9442Z" fill="url(#paint8_linear_395_3838)"/>
<path d="M17.5698 10.9442C17.6483 11.2298 17.7135 11.8019 17.4751 12.5165C17.2848 13.0866 16.2327 16.2447 15.6971 17.883L20.0115 18.3463L22.1552 11.7938C22.3741 11.2007 22.6221 10.5966 22.5397 9.95186C22.437 9.45228 22.174 8.99991 21.7906 8.6636C21.4072 8.32728 20.9244 8.12544 20.4157 8.0888C19.907 8.05215 19.4002 8.1827 18.9726 8.46058C18.5449 8.73846 18.2198 9.14846 18.0466 9.62817L17.5698 10.9442Z" fill="url(#paint9_linear_395_3838)"/>
<path d="M17.5698 10.9442C17.6483 11.2298 17.7135 11.8019 17.4751 12.5165C17.2848 13.0866 16.2327 16.2447 15.6971 17.883L20.0115 18.3463L22.1552 11.7938C22.3741 11.2007 22.6221 10.5966 22.5397 9.95186C22.437 9.45228 22.174 8.99991 21.7906 8.6636C21.4072 8.32728 20.9244 8.12544 20.4157 8.0888C19.907 8.05215 19.4002 8.1827 18.9726 8.46058C18.5449 8.73846 18.2198 9.14846 18.0466 9.62817L17.5698 10.9442Z" fill="url(#paint10_linear_395_3838)"/>
<path d="M17.5698 10.9442C17.6483 11.2298 17.7135 11.8019 17.4751 12.5165C17.2848 13.0866 16.2327 16.2447 15.6971 17.883L20.0115 18.3463L22.1552 11.7938C22.3741 11.2007 22.6221 10.5966 22.5397 9.95186C22.437 9.45228 22.174 8.99991 21.7906 8.6636C21.4072 8.32728 20.9244 8.12544 20.4157 8.0888C19.907 8.05215 19.4002 8.1827 18.9726 8.46058C18.5449 8.73846 18.2198 9.14846 18.0466 9.62817L17.5698 10.9442Z" fill="url(#paint11_radial_395_3838)"/>
<g filter="url(#filter1_f_395_3838)">
<path d="M20.8197 10.6061C21.1242 9.57545 20.7071 9.16415 20.2856 8.99556C21.615 8.95429 22.1892 9.95832 21.8642 11.0239L19.7854 17.374L17.5693 17.4914L19.0433 16.0734C19.4997 14.9323 20.5356 11.5695 20.8197 10.6061Z" fill="#C69F88"/>
</g>
<path d="M26.4128 12.5792C26.5825 12.1549 26.8878 11.8386 27.0207 11.7701L27.0218 11.7673L27.3598 10.8632C27.4767 10.5646 27.5331 10.2458 27.5255 9.92527C27.518 9.60473 27.4467 9.2889 27.3159 8.99619C27.1851 8.70347 26.9973 8.43972 26.7635 8.22031C26.5298 8.0009 26.2546 7.83022 25.9542 7.71821C25.6538 7.6062 25.3341 7.55511 25.0137 7.56791C24.6934 7.58071 24.3787 7.65716 24.0882 7.79278C23.7977 7.9284 23.5371 8.1205 23.3215 8.35786C23.106 8.59523 22.9399 8.87313 22.8328 9.17535L22.5432 9.95342C22.6193 10.5547 22.4103 11.1205 22.2038 11.6745C21.5725 13.3714 20.9052 15.6484 20.3424 17.3705L23.8112 18.7579C24.5655 16.9422 26.1727 13.1768 26.4119 12.5788" fill="url(#paint12_linear_395_3838)"/>
<path d="M26.4128 12.5792C26.5825 12.1549 26.8878 11.8386 27.0207 11.7701L27.0218 11.7673L27.3598 10.8632C27.4767 10.5646 27.5331 10.2458 27.5255 9.92527C27.518 9.60473 27.4467 9.2889 27.3159 8.99619C27.1851 8.70347 26.9973 8.43972 26.7635 8.22031C26.5298 8.0009 26.2546 7.83022 25.9542 7.71821C25.6538 7.6062 25.3341 7.55511 25.0137 7.56791C24.6934 7.58071 24.3787 7.65716 24.0882 7.79278C23.7977 7.9284 23.5371 8.1205 23.3215 8.35786C23.106 8.59523 22.9399 8.87313 22.8328 9.17535L22.5432 9.95342C22.6193 10.5547 22.4103 11.1205 22.2038 11.6745C21.5725 13.3714 20.9052 15.6484 20.3424 17.3705L23.8112 18.7579C24.5655 16.9422 26.1727 13.1768 26.4119 12.5788" fill="url(#paint13_linear_395_3838)"/>
<path d="M26.4128 12.5792C26.5825 12.1549 26.8878 11.8386 27.0207 11.7701L27.0218 11.7673L27.3598 10.8632C27.4767 10.5646 27.5331 10.2458 27.5255 9.92527C27.518 9.60473 27.4467 9.2889 27.3159 8.99619C27.1851 8.70347 26.9973 8.43972 26.7635 8.22031C26.5298 8.0009 26.2546 7.83022 25.9542 7.71821C25.6538 7.6062 25.3341 7.55511 25.0137 7.56791C24.6934 7.58071 24.3787 7.65716 24.0882 7.79278C23.7977 7.9284 23.5371 8.1205 23.3215 8.35786C23.106 8.59523 22.9399 8.87313 22.8328 9.17535L22.5432 9.95342C22.6193 10.5547 22.4103 11.1205 22.2038 11.6745C21.5725 13.3714 20.9052 15.6484 20.3424 17.3705L23.8112 18.7579C24.5655 16.9422 26.1727 13.1768 26.4119 12.5788" fill="url(#paint14_linear_395_3838)"/>
<path d="M26.4128 12.5792C26.5825 12.1549 26.8878 11.8386 27.0207 11.7701L27.0218 11.7673L27.3598 10.8632C27.4767 10.5646 27.5331 10.2458 27.5255 9.92527C27.518 9.60473 27.4467 9.2889 27.3159 8.99619C27.1851 8.70347 26.9973 8.43972 26.7635 8.22031C26.5298 8.0009 26.2546 7.83022 25.9542 7.71821C25.6538 7.6062 25.3341 7.55511 25.0137 7.56791C24.6934 7.58071 24.3787 7.65716 24.0882 7.79278C23.7977 7.9284 23.5371 8.1205 23.3215 8.35786C23.106 8.59523 22.9399 8.87313 22.8328 9.17535L22.5432 9.95342C22.6193 10.5547 22.4103 11.1205 22.2038 11.6745C21.5725 13.3714 20.9052 15.6484 20.3424 17.3705L23.8112 18.7579C24.5655 16.9422 26.1727 13.1768 26.4119 12.5788" fill="url(#paint15_radial_395_3838)"/>
<g filter="url(#filter2_f_395_3838)">
<path d="M25.9682 8.87303L22.2137 18.2601L23.3307 18.7068C24.1696 16.7547 25.9874 12.5006 26.5474 11.1004C27.1074 9.70026 26.3947 9.03178 25.9682 8.87303Z" fill="#9C7870"/>
</g>
<g filter="url(#filter3_f_395_3838)">
<path d="M25.9682 8.87303L22.2137 18.2601L23.3307 18.7068C24.1696 16.7547 25.9874 12.5006 26.5474 11.1004C27.1074 9.70026 26.3947 9.03178 25.9682 8.87303Z" fill="#C69F88"/>
</g>
<path d="M27.0173 11.7687C26.8843 11.8372 26.5781 12.1531 26.4084 12.5774C25.4407 14.997 24.6185 16.7296 23.6507 19.1493L26.7191 23.9479L27.4251 22.1828L30.7276 14.6151C30.9429 14.1219 30.9868 13.5708 30.8522 13.0498C30.7176 12.5287 30.4122 12.0678 29.9849 11.7407C29.5576 11.4136 29.0331 11.2391 28.495 11.245C27.9569 11.251 27.4363 11.4371 27.0164 11.7737L27.019 11.7672L27.0173 11.7687Z" fill="url(#paint16_linear_395_3838)"/>
<path d="M27.0173 11.7687C26.8843 11.8372 26.5781 12.1531 26.4084 12.5774C25.4407 14.997 24.6185 16.7296 23.6507 19.1493L26.7191 23.9479L27.4251 22.1828L30.7276 14.6151C30.9429 14.1219 30.9868 13.5708 30.8522 13.0498C30.7176 12.5287 30.4122 12.0678 29.9849 11.7407C29.5576 11.4136 29.0331 11.2391 28.495 11.245C27.9569 11.251 27.4363 11.4371 27.0164 11.7737L27.019 11.7672L27.0173 11.7687Z" fill="url(#paint17_linear_395_3838)"/>
<path d="M27.0173 11.7687C26.8843 11.8372 26.5781 12.1531 26.4084 12.5774C25.4407 14.997 24.6185 16.7296 23.6507 19.1493L26.7191 23.9479L27.4251 22.1828L30.7276 14.6151C30.9429 14.1219 30.9868 13.5708 30.8522 13.0498C30.7176 12.5287 30.4122 12.0678 29.9849 11.7407C29.5576 11.4136 29.0331 11.2391 28.495 11.245C27.9569 11.251 27.4363 11.4371 27.0164 11.7737L27.019 11.7672L27.0173 11.7687Z" fill="url(#paint18_radial_395_3838)"/>
<g filter="url(#filter4_f_395_3838)">
<path d="M29.5023 12.516L25.7479 21.903L26.8639 22.3494C27.7028 20.3973 29.5212 16.1445 30.0816 14.7434C30.6419 13.3423 29.9298 12.6751 29.5023 12.516Z" fill="#C69F88"/>
</g>
<path d="M27.5978 22.087L29.4389 21.0517C30.0208 20.7248 30.7088 20.6424 31.3515 20.8227C31.9942 21.003 32.539 21.4312 32.8659 22.0131C33.1929 22.5951 33.2753 23.2831 33.095 23.9258C32.9147 24.5685 32.4865 25.1132 31.9045 25.4402L31.039 25.9265L31.0301 25.9327C29.393 26.8775 27.817 27.9245 26.3115 29.0676C25.677 29.5042 25.0741 29.9965 24.476 30.4928C22.1703 27.7537 23.7778 24.976 24.9844 23.8496L27.5978 22.087Z" fill="url(#paint19_radial_395_3838)"/>
<path d="M27.5978 22.087L29.4389 21.0517C30.0208 20.7248 30.7088 20.6424 31.3515 20.8227C31.9942 21.003 32.539 21.4312 32.8659 22.0131C33.1929 22.5951 33.2753 23.2831 33.095 23.9258C32.9147 24.5685 32.4865 25.1132 31.9045 25.4402L31.039 25.9265L31.0301 25.9327C29.393 26.8775 27.817 27.9245 26.3115 29.0676C25.677 29.5042 25.0741 29.9965 24.476 30.4928C22.1703 27.7537 23.7778 24.976 24.9844 23.8496L27.5978 22.087Z" fill="url(#paint20_linear_395_3838)"/>
<path d="M22.8291 9.1738C22.9362 8.87157 23.1023 8.59368 23.3178 8.35631C23.5334 8.11894 23.794 7.92685 24.0845 7.79123C24.375 7.6556 24.6896 7.57916 25.01 7.56636C25.3304 7.55356 25.6501 7.60465 25.9505 7.71666C26.2509 7.82866 26.526 7.99935 26.7598 8.21876C26.9936 8.43817 27.1814 8.70192 27.3122 8.99464C27.443 9.28735 27.5143 9.60318 27.5218 9.92371C27.5294 10.2442 27.473 10.5631 27.3561 10.8616L27.0161 11.7736C27.436 11.4376 27.9564 11.252 28.4941 11.2462C29.0319 11.2405 29.5561 11.4151 29.9831 11.742C30.4101 12.069 30.7153 12.5295 30.85 13.0501C30.9847 13.5708 30.9412 14.1216 30.7264 14.6146L27.4241 22.1846L29.4388 21.0517C29.727 20.8899 30.0442 20.7863 30.3723 20.747C30.7005 20.7077 31.0332 20.7334 31.3514 20.8227C31.6697 20.912 31.9672 21.063 32.227 21.2673C32.4869 21.4716 32.704 21.725 32.8659 22.0132C33.0277 22.3013 33.1313 22.6185 33.1706 22.9467C33.2099 23.2749 33.1842 23.6076 33.0949 23.9258C33.0056 24.244 32.8546 24.5416 32.6503 24.8014C32.446 25.0612 32.1926 25.2783 31.9044 25.4402L31.0389 25.9266L31.03 25.9327C29.3929 26.8775 27.8169 27.9246 26.3114 29.0676C25.6069 29.5526 24.9421 30.1053 24.2777 30.657C23.3305 31.4446 22.3867 32.2292 21.3318 32.8121C20.2574 33.4137 19.062 33.7671 17.8332 33.8465C16.6044 33.9258 15.3735 33.7292 14.2306 33.2709C12.8451 32.7176 11.6354 31.7994 10.7298 30.6138C9.82425 29.4283 9.25667 28.0196 9.08735 26.5374L9.07974 26.5429C8.74391 23.9519 9.50759 21.539 9.9508 20.2612L10.7305 17.9429C10.7464 17.8814 10.7653 17.8207 10.7871 17.761L13.174 10.9719C13.3336 10.518 13.6296 10.1247 14.0215 9.84569C14.4135 9.56671 14.8821 9.41578 15.3631 9.41356C15.8442 9.41135 16.3142 9.55797 16.7087 9.83333C17.1031 10.1087 17.4028 10.4993 17.5666 10.9516L18.0451 9.62873C18.218 9.14862 18.5432 8.73821 18.971 8.46003C19.3988 8.18185 19.9059 8.05116 20.4149 8.08787C20.9239 8.12457 21.4069 8.32666 21.7904 8.66334C22.1739 9.00002 22.4368 9.45284 22.5391 9.9528L22.8291 9.1738Z" fill="url(#paint21_radial_395_3838)"/>
<path d="M22.8291 9.1738C22.9362 8.87157 23.1023 8.59368 23.3178 8.35631C23.5334 8.11894 23.794 7.92685 24.0845 7.79123C24.375 7.6556 24.6896 7.57916 25.01 7.56636C25.3304 7.55356 25.6501 7.60465 25.9505 7.71666C26.2509 7.82866 26.526 7.99935 26.7598 8.21876C26.9936 8.43817 27.1814 8.70192 27.3122 8.99464C27.443 9.28735 27.5143 9.60318 27.5218 9.92371C27.5294 10.2442 27.473 10.5631 27.3561 10.8616L27.0161 11.7736C27.436 11.4376 27.9564 11.252 28.4941 11.2462C29.0319 11.2405 29.5561 11.4151 29.9831 11.742C30.4101 12.069 30.7153 12.5295 30.85 13.0501C30.9847 13.5708 30.9412 14.1216 30.7264 14.6146L27.4241 22.1846L29.4388 21.0517C29.727 20.8899 30.0442 20.7863 30.3723 20.747C30.7005 20.7077 31.0332 20.7334 31.3514 20.8227C31.6697 20.912 31.9672 21.063 32.227 21.2673C32.4869 21.4716 32.704 21.725 32.8659 22.0132C33.0277 22.3013 33.1313 22.6185 33.1706 22.9467C33.2099 23.2749 33.1842 23.6076 33.0949 23.9258C33.0056 24.244 32.8546 24.5416 32.6503 24.8014C32.446 25.0612 32.1926 25.2783 31.9044 25.4402L31.0389 25.9266L31.03 25.9327C29.3929 26.8775 27.8169 27.9246 26.3114 29.0676C25.6069 29.5526 24.9421 30.1053 24.2777 30.657C23.3305 31.4446 22.3867 32.2292 21.3318 32.8121C20.2574 33.4137 19.062 33.7671 17.8332 33.8465C16.6044 33.9258 15.3735 33.7292 14.2306 33.2709C12.8451 32.7176 11.6354 31.7994 10.7298 30.6138C9.82425 29.4283 9.25667 28.0196 9.08735 26.5374L9.07974 26.5429C8.74391 23.9519 9.50759 21.539 9.9508 20.2612L10.7305 17.9429C10.7464 17.8814 10.7653 17.8207 10.7871 17.761L13.174 10.9719C13.3336 10.518 13.6296 10.1247 14.0215 9.84569C14.4135 9.56671 14.8821 9.41578 15.3631 9.41356C15.8442 9.41135 16.3142 9.55797 16.7087 9.83333C17.1031 10.1087 17.4028 10.4993 17.5666 10.9516L18.0451 9.62873C18.218 9.14862 18.5432 8.73821 18.971 8.46003C19.3988 8.18185 19.9059 8.05116 20.4149 8.08787C20.9239 8.12457 21.4069 8.32666 21.7904 8.66334C22.1739 9.00002 22.4368 9.45284 22.5391 9.9528L22.8291 9.1738Z" fill="url(#paint22_radial_395_3838)"/>
<path d="M22.8291 9.1738C22.9362 8.87157 23.1023 8.59368 23.3178 8.35631C23.5334 8.11894 23.794 7.92685 24.0845 7.79123C24.375 7.6556 24.6896 7.57916 25.01 7.56636C25.3304 7.55356 25.6501 7.60465 25.9505 7.71666C26.2509 7.82866 26.526 7.99935 26.7598 8.21876C26.9936 8.43817 27.1814 8.70192 27.3122 8.99464C27.443 9.28735 27.5143 9.60318 27.5218 9.92371C27.5294 10.2442 27.473 10.5631 27.3561 10.8616L27.0161 11.7736C27.436 11.4376 27.9564 11.252 28.4941 11.2462C29.0319 11.2405 29.5561 11.4151 29.9831 11.742C30.4101 12.069 30.7153 12.5295 30.85 13.0501C30.9847 13.5708 30.9412 14.1216 30.7264 14.6146L27.4241 22.1846L29.4388 21.0517C29.727 20.8899 30.0442 20.7863 30.3723 20.747C30.7005 20.7077 31.0332 20.7334 31.3514 20.8227C31.6697 20.912 31.9672 21.063 32.227 21.2673C32.4869 21.4716 32.704 21.725 32.8659 22.0132C33.0277 22.3013 33.1313 22.6185 33.1706 22.9467C33.2099 23.2749 33.1842 23.6076 33.0949 23.9258C33.0056 24.244 32.8546 24.5416 32.6503 24.8014C32.446 25.0612 32.1926 25.2783 31.9044 25.4402L31.0389 25.9266L31.03 25.9327C29.3929 26.8775 27.8169 27.9246 26.3114 29.0676C25.6069 29.5526 24.9421 30.1053 24.2777 30.657C23.3305 31.4446 22.3867 32.2292 21.3318 32.8121C20.2574 33.4137 19.062 33.7671 17.8332 33.8465C16.6044 33.9258 15.3735 33.7292 14.2306 33.2709C12.8451 32.7176 11.6354 31.7994 10.7298 30.6138C9.82425 29.4283 9.25667 28.0196 9.08735 26.5374L9.07974 26.5429C8.74391 23.9519 9.50759 21.539 9.9508 20.2612L10.7305 17.9429C10.7464 17.8814 10.7653 17.8207 10.7871 17.761L13.174 10.9719C13.3336 10.518 13.6296 10.1247 14.0215 9.84569C14.4135 9.56671 14.8821 9.41578 15.3631 9.41356C15.8442 9.41135 16.3142 9.55797 16.7087 9.83333C17.1031 10.1087 17.4028 10.4993 17.5666 10.9516L18.0451 9.62873C18.218 9.14862 18.5432 8.73821 18.971 8.46003C19.3988 8.18185 19.9059 8.05116 20.4149 8.08787C20.9239 8.12457 21.4069 8.32666 21.7904 8.66334C22.1739 9.00002 22.4368 9.45284 22.5391 9.9528L22.8291 9.1738Z" fill="url(#paint23_radial_395_3838)"/>
<path d="M22.8291 9.1738C22.9362 8.87157 23.1023 8.59368 23.3178 8.35631C23.5334 8.11894 23.794 7.92685 24.0845 7.79123C24.375 7.6556 24.6896 7.57916 25.01 7.56636C25.3304 7.55356 25.6501 7.60465 25.9505 7.71666C26.2509 7.82866 26.526 7.99935 26.7598 8.21876C26.9936 8.43817 27.1814 8.70192 27.3122 8.99464C27.443 9.28735 27.5143 9.60318 27.5218 9.92371C27.5294 10.2442 27.473 10.5631 27.3561 10.8616L27.0161 11.7736C27.436 11.4376 27.9564 11.252 28.4941 11.2462C29.0319 11.2405 29.5561 11.4151 29.9831 11.742C30.4101 12.069 30.7153 12.5295 30.85 13.0501C30.9847 13.5708 30.9412 14.1216 30.7264 14.6146L27.4241 22.1846L29.4388 21.0517C29.727 20.8899 30.0442 20.7863 30.3723 20.747C30.7005 20.7077 31.0332 20.7334 31.3514 20.8227C31.6697 20.912 31.9672 21.063 32.227 21.2673C32.4869 21.4716 32.704 21.725 32.8659 22.0132C33.0277 22.3013 33.1313 22.6185 33.1706 22.9467C33.2099 23.2749 33.1842 23.6076 33.0949 23.9258C33.0056 24.244 32.8546 24.5416 32.6503 24.8014C32.446 25.0612 32.1926 25.2783 31.9044 25.4402L31.0389 25.9266L31.03 25.9327C29.3929 26.8775 27.8169 27.9246 26.3114 29.0676C25.6069 29.5526 24.9421 30.1053 24.2777 30.657C23.3305 31.4446 22.3867 32.2292 21.3318 32.8121C20.2574 33.4137 19.062 33.7671 17.8332 33.8465C16.6044 33.9258 15.3735 33.7292 14.2306 33.2709C12.8451 32.7176 11.6354 31.7994 10.7298 30.6138C9.82425 29.4283 9.25667 28.0196 9.08735 26.5374L9.07974 26.5429C8.74391 23.9519 9.50759 21.539 9.9508 20.2612L10.7305 17.9429C10.7464 17.8814 10.7653 17.8207 10.7871 17.761L13.174 10.9719C13.3336 10.518 13.6296 10.1247 14.0215 9.84569C14.4135 9.56671 14.8821 9.41578 15.3631 9.41356C15.8442 9.41135 16.3142 9.55797 16.7087 9.83333C17.1031 10.1087 17.4028 10.4993 17.5666 10.9516L18.0451 9.62873C18.218 9.14862 18.5432 8.73821 18.971 8.46003C19.3988 8.18185 19.9059 8.05116 20.4149 8.08787C20.9239 8.12457 21.4069 8.32666 21.7904 8.66334C22.1739 9.00002 22.4368 9.45284 22.5391 9.9528L22.8291 9.1738Z" fill="url(#paint24_radial_395_3838)"/>
<path d="M22.8291 9.1738C22.9362 8.87157 23.1023 8.59368 23.3178 8.35631C23.5334 8.11894 23.794 7.92685 24.0845 7.79123C24.375 7.6556 24.6896 7.57916 25.01 7.56636C25.3304 7.55356 25.6501 7.60465 25.9505 7.71666C26.2509 7.82866 26.526 7.99935 26.7598 8.21876C26.9936 8.43817 27.1814 8.70192 27.3122 8.99464C27.443 9.28735 27.5143 9.60318 27.5218 9.92371C27.5294 10.2442 27.473 10.5631 27.3561 10.8616L27.0161 11.7736C27.436 11.4376 27.9564 11.252 28.4941 11.2462C29.0319 11.2405 29.5561 11.4151 29.9831 11.742C30.4101 12.069 30.7153 12.5295 30.85 13.0501C30.9847 13.5708 30.9412 14.1216 30.7264 14.6146L27.4241 22.1846L29.4388 21.0517C29.727 20.8899 30.0442 20.7863 30.3723 20.747C30.7005 20.7077 31.0332 20.7334 31.3514 20.8227C31.6697 20.912 31.9672 21.063 32.227 21.2673C32.4869 21.4716 32.704 21.725 32.8659 22.0132C33.0277 22.3013 33.1313 22.6185 33.1706 22.9467C33.2099 23.2749 33.1842 23.6076 33.0949 23.9258C33.0056 24.244 32.8546 24.5416 32.6503 24.8014C32.446 25.0612 32.1926 25.2783 31.9044 25.4402L31.0389 25.9266L31.03 25.9327C29.3929 26.8775 27.8169 27.9246 26.3114 29.0676C25.6069 29.5526 24.9421 30.1053 24.2777 30.657C23.3305 31.4446 22.3867 32.2292 21.3318 32.8121C20.2574 33.4137 19.062 33.7671 17.8332 33.8465C16.6044 33.9258 15.3735 33.7292 14.2306 33.2709C12.8451 32.7176 11.6354 31.7994 10.7298 30.6138C9.82425 29.4283 9.25667 28.0196 9.08735 26.5374L9.07974 26.5429C8.74391 23.9519 9.50759 21.539 9.9508 20.2612L10.7305 17.9429C10.7464 17.8814 10.7653 17.8207 10.7871 17.761L13.174 10.9719C13.3336 10.518 13.6296 10.1247 14.0215 9.84569C14.4135 9.56671 14.8821 9.41578 15.3631 9.41356C15.8442 9.41135 16.3142 9.55797 16.7087 9.83333C17.1031 10.1087 17.4028 10.4993 17.5666 10.9516L18.0451 9.62873C18.218 9.14862 18.5432 8.73821 18.971 8.46003C19.3988 8.18185 19.9059 8.05116 20.4149 8.08787C20.9239 8.12457 21.4069 8.32666 21.7904 8.66334C22.1739 9.00002 22.4368 9.45284 22.5391 9.9528L22.8291 9.1738Z" fill="url(#paint25_radial_395_3838)" fill-opacity="0.6"/>
<g filter="url(#filter5_f_395_3838)">
<path d="M31.2996 23.5376C30.3321 23.953 27.8994 25.1588 25.9086 26.6653" stroke="url(#paint26_linear_395_3838)" stroke-width="1.5" stroke-linecap="round"/>
</g>
<g filter="url(#filter6_f_395_3838)">
<path d="M15.6399 17.0179C15.242 17.2292 13.9523 17.7905 13.2209 18.1032" stroke="url(#paint27_linear_395_3838)" stroke-width="0.5" stroke-linecap="round"/>
</g>
<g filter="url(#filter7_f_395_3838)">
<path d="M17.8335 17.2565C18.5363 17.2684 19.6715 17.1903 20.2425 17.0417" stroke="url(#paint28_linear_395_3838)" stroke-width="0.5" stroke-linecap="round"/>
</g>
<g filter="url(#filter8_f_395_3838)">
<path d="M21.5508 17.8506C22.0009 18.3677 22.8585 18.9972 23.5188 19.1073" stroke="url(#paint29_linear_395_3838)" stroke-width="0.5" stroke-linecap="round"/>
</g>
<g filter="url(#filter9_f_395_3838)">
<path d="M25.5141 23.3411C25.9063 23.0768 26.6309 22.5254 26.9075 22.383" stroke="url(#paint30_linear_395_3838)" stroke-width="0.5" stroke-linecap="round"/>
</g>
<g filter="url(#filter10_f_395_3838)">
<path d="M26.9365 22.3945C25.3161 21.7335 24.1452 20.1451 23.8084 19.5278C22.6337 21.3876 23.5612 23.485 24.171 24.2168L26.9365 22.3945Z" fill="url(#paint31_radial_395_3838)"/>
</g>
</g>
<defs>
<filter id="filter0_f_395_3838" x="11.7935" y="9.11304" width="6.18066" height="10.0496" filterUnits="userSpaceOnUse" color-interpolation-filters="sRGB">
<feFlood flood-opacity="0" result="BackgroundImageFix"/>
<feBlend mode="normal" in="SourceGraphic" in2="BackgroundImageFix" result="shape"/>
<feGaussianBlur stdDeviation="0.5" result="effect1_foregroundBlur_395_3838"/>
</filter>
<filter id="filter1_f_395_3838" x="16.5693" y="7.99438" width="6.38379" height="10.4971" filterUnits="userSpaceOnUse" color-interpolation-filters="sRGB">
<feFlood flood-opacity="0" result="BackgroundImageFix"/>
<feBlend mode="normal" in="SourceGraphic" in2="BackgroundImageFix" result="shape"/>
<feGaussianBlur stdDeviation="0.5" result="effect1_foregroundBlur_395_3838"/>
</filter>
<filter id="filter2_f_395_3838" x="21.2139" y="7.87305" width="6.53955" height="11.8337" filterUnits="userSpaceOnUse" color-interpolation-filters="sRGB">
<feFlood flood-opacity="0" result="BackgroundImageFix"/>
<feBlend mode="normal" in="SourceGraphic" in2="BackgroundImageFix" result="shape"/>
<feGaussianBlur stdDeviation="0.5" result="effect1_foregroundBlur_395_3838"/>
</filter>
<filter id="filter3_f_395_3838" x="21.2139" y="7.87305" width="6.53955" height="11.8337" filterUnits="userSpaceOnUse" color-interpolation-filters="sRGB">
<feFlood flood-opacity="0" result="BackgroundImageFix"/>
<feBlend mode="normal" in="SourceGraphic" in2="BackgroundImageFix" result="shape"/>
<feGaussianBlur stdDeviation="0.5" result="effect1_foregroundBlur_395_3838"/>
</filter>
<filter id="filter4_f_395_3838" x="24.748" y="11.5159" width="6.54004" height="11.8335" filterUnits="userSpaceOnUse" color-interpolation-filters="sRGB">
<feFlood flood-opacity="0" result="BackgroundImageFix"/>
<feBlend mode="normal" in="SourceGraphic" in2="BackgroundImageFix" result="shape"/>
<feGaussianBlur stdDeviation="0.5" result="effect1_foregroundBlur_395_3838"/>
</filter>
<filter id="filter5_f_395_3838" x="24.1587" y="21.7874" width="8.89111" height="6.62793" filterUnits="userSpaceOnUse" color-interpolation-filters="sRGB">
<feFlood flood-opacity="0" result="BackgroundImageFix"/>
<feBlend mode="normal" in="SourceGraphic" in2="BackgroundImageFix" result="shape"/>
<feGaussianBlur stdDeviation="0.5" result="effect1_foregroundBlur_395_3838"/>
</filter>
<filter id="filter6_f_395_3838" x="12.4707" y="16.2678" width="3.91943" height="2.58545" filterUnits="userSpaceOnUse" color-interpolation-filters="sRGB">
<feFlood flood-opacity="0" result="BackgroundImageFix"/>
<feBlend mode="normal" in="SourceGraphic" in2="BackgroundImageFix" result="shape"/>
<feGaussianBlur stdDeviation="0.25" result="effect1_foregroundBlur_395_3838"/>
</filter>
<filter id="filter7_f_395_3838" x="17.0835" y="16.2917" width="3.90918" height="1.71582" filterUnits="userSpaceOnUse" color-interpolation-filters="sRGB">
<feFlood flood-opacity="0" result="BackgroundImageFix"/>
<feBlend mode="normal" in="SourceGraphic" in2="BackgroundImageFix" result="shape"/>
<feGaussianBlur stdDeviation="0.25" result="effect1_foregroundBlur_395_3838"/>
</filter>
<filter id="filter8_f_395_3838" x="20.8008" y="17.1006" width="3.46826" height="2.75684" filterUnits="userSpaceOnUse" color-interpolation-filters="sRGB">
<feFlood flood-opacity="0" result="BackgroundImageFix"/>
<feBlend mode="normal" in="SourceGraphic" in2="BackgroundImageFix" result="shape"/>
<feGaussianBlur stdDeviation="0.25" result="effect1_foregroundBlur_395_3838"/>
</filter>
<filter id="filter9_f_395_3838" x="24.7642" y="21.6331" width="2.89355" height="2.45801" filterUnits="userSpaceOnUse" color-interpolation-filters="sRGB">
<feFlood flood-opacity="0" result="BackgroundImageFix"/>
<feBlend mode="normal" in="SourceGraphic" in2="BackgroundImageFix" result="shape"/>
<feGaussianBlur stdDeviation="0.25" result="effect1_foregroundBlur_395_3838"/>
</filter>
<filter id="filter10_f_395_3838" x="22.7437" y="19.0278" width="4.69287" height="5.68896" filterUnits="userSpaceOnUse" color-interpolation-filters="sRGB">
<feFlood flood-opacity="0" result="BackgroundImageFix"/>
<feBlend mode="normal" in="SourceGraphic" in2="BackgroundImageFix" result="shape"/>
<feGaussianBlur stdDeviation="0.25" result="effect1_foregroundBlur_395_3838"/>
</filter>
<radialGradient id="paint0_radial_395_3838" cx="0" cy="0" r="1" gradientUnits="userSpaceOnUse" gradientTransform="translate(29.6475 25.8806) rotate(-175.923) scale(20.3788 31.0715)">
<stop offset="0.818" stop-color="#916761" stop-opacity="0"/>
<stop offset="1" stop-color="#916761"/>
</radialGradient>
<radialGradient id="paint1_radial_395_3838" cx="0" cy="0" r="1" gradientUnits="userSpaceOnUse" gradientTransform="translate(25.9672 14.0487) rotate(125.304) scale(24.9036 17.1915)">
<stop offset="0.751" stop-color="#99597D" stop-opacity="0"/>
<stop offset="1" stop-color="#99597D"/>
</radialGradient>
<radialGradient id="paint2_radial_395_3838" cx="0" cy="0" r="1" gradientUnits="userSpaceOnUse" gradientTransform="translate(20.2835 35.1987) rotate(-95.5186) scale(8.58217 10.8072)">
<stop stop-color="#BD8A82"/>
<stop offset="1" stop-color="#BD8A82" stop-opacity="0"/>
</radialGradient>
<radialGradient id="paint3_radial_395_3838" cx="0" cy="0" r="1" gradientUnits="userSpaceOnUse" gradientTransform="translate(24.7045 13.5395) rotate(119.106) scale(22.7173 15.6822)">
<stop offset="0.908" stop-color="#9A5987" stop-opacity="0"/>
<stop offset="1" stop-color="#9A5987"/>
</radialGradient>
<radialGradient id="paint4_radial_395_3838" cx="0" cy="0" r="1" gradientUnits="userSpaceOnUse" gradientTransform="translate(30.3914 26.8211) rotate(-122.784) scale(1.72555 7.38422)">
<stop stop-color="#A9817C"/>
<stop offset="1" stop-color="#A9817C" stop-opacity="0"/>
</radialGradient>
<linearGradient id="paint5_linear_395_3838" x1="16.9894" y1="13.9918" x2="15.8658" y2="13.5725" gradientUnits="userSpaceOnUse">
<stop stop-color="#A97D6C"/>
<stop offset="1" stop-color="#A97D6C" stop-opacity="0"/>
</linearGradient>
<linearGradient id="paint6_linear_395_3838" x1="15.7249" y1="16.3348" x2="15.4844" y2="15.3016" gradientUnits="userSpaceOnUse">
<stop stop-color="#B5887C"/>
<stop offset="1" stop-color="#B5887C" stop-opacity="0"/>
</linearGradient>
<radialGradient id="paint7_radial_395_3838" cx="0" cy="0" r="1" gradientUnits="userSpaceOnUse" gradientTransform="translate(16.2954 9.38619) rotate(109.625) scale(2.17344 5.42725)">
<stop stop-color="#9D7E66"/>
<stop offset="1" stop-color="#9D7E66" stop-opacity="0"/>
</radialGradient>
<linearGradient id="paint8_linear_395_3838" x1="21.704" y1="13.9559" x2="20.45" y2="13.5555" gradientUnits="userSpaceOnUse">
<stop stop-color="#A57B69"/>
<stop offset="1" stop-color="#A57B69" stop-opacity="0"/>
</linearGradient>
<linearGradient id="paint9_linear_395_3838" x1="16.6937" y1="13.0053" x2="18.9639" y2="13.784" gradientUnits="userSpaceOnUse">
<stop stop-color="#825A4C"/>
<stop offset="1" stop-color="#825A4C" stop-opacity="0"/>
</linearGradient>
<linearGradient id="paint10_linear_395_3838" x1="17.3368" y1="18.2157" x2="17.7348" y2="14.8132" gradientUnits="userSpaceOnUse">
<stop offset="0.405" stop-color="#B5887C"/>
<stop offset="1" stop-color="#B5887C" stop-opacity="0"/>
</linearGradient>
<radialGradient id="paint11_radial_395_3838" cx="0" cy="0" r="1" gradientUnits="userSpaceOnUse" gradientTransform="translate(20.7026 7.55124) rotate(99.7634) scale(3.35183 5.94373)">
<stop stop-color="#A18067"/>
<stop offset="1" stop-color="#A18067" stop-opacity="0"/>
</radialGradient>
<linearGradient id="paint12_linear_395_3838" x1="21.726" y1="12.7801" x2="23.7098" y2="13.4615" gradientUnits="userSpaceOnUse">
<stop stop-color="#84584B"/>
<stop offset="1" stop-color="#84584B" stop-opacity="0"/>
</linearGradient>
<linearGradient id="paint13_linear_395_3838" x1="25.6411" y1="14.6378" x2="24.8627" y2="14.3168" gradientUnits="userSpaceOnUse">
<stop stop-color="#99735B"/>
<stop offset="1" stop-color="#99735B" stop-opacity="0"/>
</linearGradient>
<linearGradient id="paint14_linear_395_3838" x1="21.6581" y1="18.5914" x2="22.3291" y2="16.9137" gradientUnits="userSpaceOnUse">
<stop offset="0.348" stop-color="#B5887C"/>
<stop offset="1" stop-color="#B5887C" stop-opacity="0"/>
</linearGradient>
<radialGradient id="paint15_radial_395_3838" cx="0" cy="0" r="1" gradientUnits="userSpaceOnUse" gradientTransform="translate(25.1768 17.1132) rotate(-94.8516) scale(9.71133 11.3986)">
<stop offset="0.87" stop-color="#A28268" stop-opacity="0"/>
<stop offset="1" stop-color="#A28268"/>
</radialGradient>
<linearGradient id="paint16_linear_395_3838" x1="24.5789" y1="16.2873" x2="26.9998" y2="17.3568" gradientUnits="userSpaceOnUse">
<stop stop-color="#84564C"/>
<stop offset="1" stop-color="#84564C" stop-opacity="0"/>
</linearGradient>
<linearGradient id="paint17_linear_395_3838" x1="24.4232" y1="20.4383" x2="25.9208" y2="19.1471" gradientUnits="userSpaceOnUse">
<stop stop-color="#B5887C"/>
<stop offset="1" stop-color="#B5887C" stop-opacity="0"/>
</linearGradient>
<radialGradient id="paint18_radial_395_3838" cx="0" cy="0" r="1" gradientUnits="userSpaceOnUse" gradientTransform="translate(28.1303 21.9005) rotate(-86.7426) scale(10.7702 11.6283)">
<stop offset="0.878" stop-color="#987962" stop-opacity="0"/>
<stop offset="1" stop-color="#987962"/>
</radialGradient>
<radialGradient id="paint19_radial_395_3838" cx="0" cy="0" r="1" gradientUnits="userSpaceOnUse" gradientTransform="translate(28.3894 21.4946) rotate(59.3033) scale(1.69385 5.27412)">
<stop stop-color="#855F49"/>
<stop offset="1" stop-color="#855F49" stop-opacity="0"/>
</radialGradient>
<linearGradient id="paint20_linear_395_3838" x1="24.5994" y1="24.3246" x2="26.3063" y2="23.5899" gradientUnits="userSpaceOnUse">
<stop stop-color="#B6897D"/>
<stop offset="1" stop-color="#B6897D" stop-opacity="0"/>
</linearGradient>
<radialGradient id="paint21_radial_395_3838" cx="0" cy="0" r="1" gradientUnits="userSpaceOnUse" gradientTransform="translate(32.2455 23.0876) rotate(151.77) scale(2.7728 1.95149)">
<stop stop-color="#C69F87"/>
<stop offset="1" stop-color="#C69F87" stop-opacity="0"/>
</radialGradient>
<radialGradient id="paint22_radial_395_3838" cx="0" cy="0" r="1" gradientUnits="userSpaceOnUse" gradientTransform="translate(31.0378 12.8309) rotate(152.164) scale(2.77561 2.99718)">
<stop stop-color="#C69F87"/>
<stop offset="1" stop-color="#C69F87" stop-opacity="0"/>
</radialGradient>
<radialGradient id="paint23_radial_395_3838" cx="0" cy="0" r="1" gradientUnits="userSpaceOnUse" gradientTransform="translate(27.8367 8.87487) rotate(134.332) scale(2.69033 2.84931)">
<stop offset="0.325" stop-color="#C69F87"/>
<stop offset="1" stop-color="#C69F87" stop-opacity="0"/>
</radialGradient>
<radialGradient id="paint24_radial_395_3838" cx="0" cy="0" r="1" gradientUnits="userSpaceOnUse" gradientTransform="translate(20.9999 9.95465) rotate(144.599) scale(1.41523 1.65613)">
<stop stop-color="#C69F87"/>
<stop offset="1" stop-color="#C69F87" stop-opacity="0"/>
</radialGradient>
<radialGradient id="paint25_radial_395_3838" cx="0" cy="0" r="1" gradientUnits="userSpaceOnUse" gradientTransform="translate(16.0321 11.2704) rotate(142.21) scale(1.41004 1.52259)">
<stop stop-color="#C69F87"/>
<stop offset="1" stop-color="#C69F87" stop-opacity="0"/>
</radialGradient>
<linearGradient id="paint26_linear_395_3838" x1="31.6053" y1="24.0551" x2="25.045" y2="28.3317" gradientUnits="userSpaceOnUse">
<stop stop-color="#C29186"/>
<stop offset="1" stop-color="#C29186" stop-opacity="0"/>
</linearGradient>
<linearGradient id="paint27_linear_395_3838" x1="15.7462" y1="17.4632" x2="13.5957" y2="19.4173" gradientUnits="userSpaceOnUse">
<stop stop-color="#C19985"/>
<stop offset="1" stop-color="#C19985" stop-opacity="0"/>
</linearGradient>
<linearGradient id="paint28_linear_395_3838" x1="20.449" y1="17.3548" x2="19.4086" y2="18.8278" gradientUnits="userSpaceOnUse">
<stop stop-color="#C19985"/>
<stop offset="1" stop-color="#C19985" stop-opacity="0"/>
</linearGradient>
<linearGradient id="paint29_linear_395_3838" x1="23.9504" y1="18.9116" x2="23.582" y2="19.6226" gradientUnits="userSpaceOnUse">
<stop stop-color="#C19985"/>
<stop offset="1" stop-color="#C19985" stop-opacity="0"/>
</linearGradient>
<linearGradient id="paint30_linear_395_3838" x1="26.8582" y1="22.695" x2="25.0809" y2="23.2636" gradientUnits="userSpaceOnUse">
<stop stop-color="#C19985"/>
<stop offset="1" stop-color="#C19985" stop-opacity="0"/>
</linearGradient>
<radialGradient id="paint31_radial_395_3838" cx="0" cy="0" r="1" gradientUnits="userSpaceOnUse" gradientTransform="translate(27.1139 22.4147) rotate(166.424) scale(3.83256 5.45389)">
<stop stop-color="#C29A87"/>
<stop offset="1" stop-color="#C29A87" stop-opacity="0"/>
</radialGradient>
<clipPath id="clip0_395_3838">
<rect width="32" height="32" fill="white" transform="translate(11.8833) rotate(21.7994)"/>
</clipPath>
</defs>
</svg>
