<svg width="427" height="319" viewBox="0 0 427 319" fill="none" xmlns="http://www.w3.org/2000/svg">
<path d="M426.951 279.568H0V279.781H426.951V279.568Z" fill="#E6E6E6"/>
<path d="M380.482 285.058H360.628V285.272H380.482V285.058Z" fill="#E6E6E6"/>
<path d="M308.259 289.695H213.962V289.908H308.259V289.695Z" fill="#E6E6E6"/>
<path d="M173.624 289.806H164.376V290.019H173.624V289.806Z" fill="#E6E6E6"/>
<path d="M98.6771 287.244H66.6045V287.458H98.6771V287.244Z" fill="#E6E6E6"/>
<path d="M352.363 285.058H333.594V285.272H352.363V285.058Z" fill="#E6E6E6"/>
<path d="M59.6365 287.244H44.104V287.458H59.6365V287.244Z" fill="#E6E6E6"/>
<path d="M202.375 241.484H37.4947C36.203 241.481 34.965 240.967 34.0525 240.052C33.14 239.138 32.6274 237.899 32.6274 236.608V4.83309C32.6387 3.54884 33.1562 2.32089 34.0675 1.41596C34.9788 0.511025 36.2104 0.00219998 37.4947 0H202.375C203.668 0 204.908 0.513697 205.822 1.42808C206.737 2.34247 207.25 3.58264 207.25 4.87578V236.608C207.25 237.901 206.737 239.141 205.822 240.056C204.908 240.97 203.668 241.484 202.375 241.484ZM37.4947 0.170781C36.2596 0.173043 35.076 0.665246 34.2035 1.53935C33.3309 2.41346 32.8409 3.59804 32.8409 4.83309V236.608C32.8409 237.843 33.3309 239.027 34.2035 239.902C35.076 240.776 36.2596 241.268 37.4947 241.27H202.375C203.611 241.268 204.795 240.776 205.669 239.902C206.543 239.028 207.035 237.844 207.037 236.608V4.83309C207.035 3.59726 206.543 2.41269 205.669 1.53883C204.795 0.664968 203.611 0.173038 202.375 0.170781H37.4947Z" fill="#E6E6E6"/>
<path d="M387.083 241.484H222.194C220.902 241.481 219.663 240.967 218.749 240.053C217.835 239.139 217.321 237.9 217.318 236.608V4.83309C217.332 3.54806 217.851 2.32012 218.764 1.41542C219.677 0.510726 220.909 0.00217599 222.194 0H387.083C388.365 0.00444413 389.595 0.514262 390.504 1.41895C391.414 2.32364 391.93 3.55031 391.941 4.83309V236.608C391.941 237.898 391.43 239.136 390.519 240.049C389.609 240.963 388.373 241.479 387.083 241.484ZM222.194 0.170781C220.958 0.173038 219.774 0.664968 218.9 1.53883C218.026 2.41269 217.534 3.59726 217.532 4.83309V236.608C217.534 237.844 218.026 239.028 218.9 239.902C219.774 240.776 220.958 241.268 222.194 241.27H387.083C388.318 241.268 389.503 240.776 390.377 239.902C391.251 239.028 391.743 237.844 391.745 236.608V4.83309C391.743 3.59726 391.251 2.41269 390.377 1.53883C389.503 0.664968 388.318 0.173038 387.083 0.170781H222.194Z" fill="#E6E6E6"/>
<path d="M276.297 128.188H340.827V15.8398L276.297 15.8398V128.188Z" fill="#E6E6E6"/>
<path d="M272.813 128.188H337.343V15.8398L272.813 15.8398V128.188Z" fill="#F5F5F5"/>
<path d="M331.075 122.919V21.1169L279.064 21.1169V122.919H331.075Z" fill="#FAFAFA"/>
<path d="M281.702 122.919V21.1169H279.064V122.919H281.702Z" fill="#E6E6E6"/>
<path d="M275.401 98.344L334.755 98.344V91.2651H275.401V98.344Z" fill="#F5F5F5"/>
<path d="M166.631 128.188H231.16V15.8398L166.631 15.8398V128.188Z" fill="#E6E6E6"/>
<path d="M163.146 128.188H227.676V15.8398L163.146 15.8398V128.188Z" fill="#F5F5F5"/>
<path d="M221.417 122.919V21.1169L169.406 21.1169V122.919H221.417Z" fill="#FAFAFA"/>
<path d="M172.036 122.911V21.1084H169.397V122.911H172.036Z" fill="#E6E6E6"/>
<path d="M165.734 98.344L225.089 98.344V91.2651H165.734V98.344Z" fill="#F5F5F5"/>
<path d="M56.9721 128.188H121.501L121.501 15.8398L56.9721 15.8398L56.9721 128.188Z" fill="#E6E6E6"/>
<path d="M53.4887 128.188H118.018L118.018 15.8398L53.4887 15.8398L53.4887 128.188Z" fill="#F5F5F5"/>
<path d="M111.75 122.911V21.1084L59.7388 21.1084L59.7388 122.911H111.75Z" fill="#FAFAFA"/>
<path d="M62.3774 122.919L62.3774 21.1169H59.7389L59.7389 122.919H62.3774Z" fill="#E6E6E6"/>
<path d="M56.0759 98.344L115.431 98.344V91.2651H56.0759V98.344Z" fill="#F5F5F5"/>
<path d="M119.547 197.695C107.908 199.301 100.709 174.008 126.378 152.592C125.037 177.381 139.852 194.895 119.547 197.695Z" fill="#E6E6E6"/>
<path d="M111.007 230.818C94.1341 218.992 105.679 177.671 157.895 180.669C135.318 211.085 140.433 251.432 111.007 230.818Z" fill="#E0E0E0"/>
<path d="M116.985 230.554C128.196 218.479 112.237 188.089 71.8901 199.19C94.6552 219.171 97.4218 251.594 116.985 230.554Z" fill="#E0E0E0"/>
<path d="M102.588 212.929C98.711 208.207 94.1341 202.896 95.2442 197.277C96.3543 191.658 99.1294 187.483 96.952 181.506C94.3049 174.333 94.8172 165.777 99.2917 166.494C103.766 167.211 108.779 172.471 108.685 179.396C108.608 186.125 112.954 188.277 117.138 191.855C121.322 195.433 122.8 200.667 123.543 205.79C124.84 213.928 135.386 212.391 138.187 219.453C141.082 226.284 135.309 235.378 126.079 237.47C116.848 239.562 110.273 240.886 103.98 233.662C97.5839 226.054 108.326 219.692 102.588 212.929Z" fill="#F5F5F5"/>
<path d="M134.345 279.568H99.6676L97.0547 232.33H136.958L134.345 279.568Z" fill="#EBEBEB"/>
<path d="M139.545 231.365H94.4673V236.454H139.545V231.365Z" fill="#EBEBEB"/>
<path d="M338.777 273.155H362.105V171.993H338.777V273.155Z" fill="#EBEBEB"/>
<path d="M155.965 279.568H357.623V273.155H155.965V279.568Z" fill="#EBEBEB"/>
<path d="M338.777 171.993H151.491V273.155H338.777V171.993Z" fill="#F5F5F5"/>
<path d="M329.607 184.443H160.662V217.626H329.607V184.443Z" fill="#EBEBEB"/>
<path d="M329.607 227.522H160.662V260.705H329.607V227.522Z" fill="#EBEBEB"/>
<path d="M192.58 203.306H297.687C298.289 203.303 298.865 203.063 299.291 202.638C299.716 202.212 299.956 201.636 299.959 201.034C299.959 200.431 299.72 199.853 299.294 199.425C298.868 198.998 298.29 198.757 297.687 198.754H192.58C191.977 198.757 191.4 198.998 190.974 199.425C190.548 199.853 190.309 200.431 190.309 201.034C190.311 201.636 190.551 202.212 190.977 202.638C191.402 203.063 191.979 203.303 192.58 203.306Z" fill="#F5F5F5"/>
<path d="M192.58 246.385H297.687C298.289 246.383 298.865 246.143 299.291 245.717C299.716 245.292 299.956 244.715 299.959 244.114C299.956 243.512 299.716 242.936 299.291 242.51C298.865 242.085 298.289 241.845 297.687 241.842H192.58C191.979 241.845 191.402 242.085 190.977 242.51C190.551 242.936 190.311 243.512 190.309 244.114C190.311 244.715 190.551 245.292 190.977 245.717C191.402 246.143 191.979 246.383 192.58 246.385Z" fill="#F5F5F5"/>
<path d="M287.073 157.229C287.073 157.229 313.8 182.556 329.666 157.126C329.666 157.126 325.448 148.955 320.999 148.254C316.55 147.554 316.371 155.325 312.46 152.925C308.549 150.526 303.981 142.32 301.487 146.7C298.994 151.081 295.57 144.839 291.838 144.48C288.106 144.121 287.073 157.229 287.073 157.229Z" fill="#F5F5F5"/>
<path d="M331.365 155.479C331.365 155.479 330.784 171.993 308.258 171.993C285.733 171.993 285.152 155.479 285.152 155.479H331.365Z" fill="#EBEBEB"/>
<path d="M217.412 146.871H230.383V171.993H192.299C192.299 165.332 194.944 158.943 199.654 154.232C204.363 149.521 210.751 146.874 217.412 146.871Z" fill="#F5F5F5"/>
<path d="M242.346 146.871H230.383V171.993H242.346V146.871Z" fill="#E6E6E6"/>
<path d="M213.476 318.13C304.914 318.13 379.039 313.802 379.039 308.464C379.039 303.125 304.914 298.797 213.476 298.797C122.038 298.797 47.9126 303.125 47.9126 308.464C47.9126 313.802 122.038 318.13 213.476 318.13Z" fill="#F5F5F5"/>
<path d="M186.15 121.903L185.587 122.757C185.416 123.005 185.237 123.227 185.066 123.457C184.716 123.918 184.349 124.311 183.981 124.781C183.239 125.635 182.487 126.488 181.684 127.24C180.079 128.782 178.367 130.209 176.561 131.509C174.757 132.81 172.859 133.974 170.883 134.993C169.883 135.48 168.893 135.984 167.86 136.394L166.314 137.009L165.879 137.171C165.64 137.248 165.418 137.333 165.153 137.393C164.636 137.522 164.105 137.582 163.573 137.572C162.559 137.565 161.56 137.316 160.661 136.846C159.938 136.469 159.274 135.988 158.689 135.42C157.762 134.506 156.961 133.472 156.306 132.346C155.188 130.397 154.275 128.336 153.582 126.198C152.239 122.167 151.279 118.019 150.713 113.808L154.283 113.022C154.932 114.893 155.598 116.822 156.332 118.684C157.066 120.545 157.801 122.398 158.655 124.157C159.432 125.855 160.358 127.481 161.421 129.016C161.844 129.652 162.353 130.227 162.933 130.724C163.099 130.861 163.287 130.97 163.488 131.048C163.607 131.048 163.599 131.048 163.539 131.048H163.479L163.761 130.912L165.033 130.297C165.887 129.887 166.698 129.443 167.518 128.948C169.135 127.979 170.697 126.921 172.198 125.78C173.678 124.616 175.084 123.362 176.407 122.023C177.073 121.374 177.705 120.682 178.312 119.982C178.61 119.632 178.909 119.282 179.165 118.931L179.575 118.411L179.908 117.967L186.15 121.903Z" fill="#B97964"/>
<path d="M175.81 121.536L180.139 131.919L177.005 133.875L172.138 124.456L175.81 121.536Z" fill="#263238"/>
<path d="M188.063 112.792C181.002 112.698 173.829 121.638 173.649 121.86L179.234 134.993C179.234 134.993 191.658 124.909 192.282 120.964C192.931 116.856 192.538 112.852 188.063 112.792Z" fill="#0084CE"/>
<path d="M153.702 111.665L148.818 107.865L147.828 115.345C147.828 115.345 152.575 117.207 155.103 115.593L155.035 114.227C155.009 113.729 154.877 113.243 154.647 112.801C154.417 112.359 154.095 111.971 153.702 111.665Z" fill="#B97964"/>
<path d="M142.312 107.489L142.619 113.167L147.853 115.345L148.844 107.865L142.312 107.489Z" fill="#B97964"/>
<path d="M249.34 111.058L256.888 109.171L251.611 103.783C251.611 103.783 246.718 105.781 247.914 110.051L249.34 111.058Z" fill="#B97964"/>
<path d="M260.637 107.831L260.013 101.905L251.568 103.783L256.845 109.171L260.637 107.831Z" fill="#B97964"/>
<path d="M224.722 300.975L217.694 301.649L211.828 285.067L218.855 284.384L224.722 300.975Z" fill="#B97964"/>
<path d="M299.95 266.11L294.775 271.131L281.472 260.747L286.655 255.727L299.95 266.11Z" fill="#B97964"/>
<path d="M293.281 270.158L297.26 263.096C297.327 262.974 297.436 262.882 297.566 262.834C297.697 262.787 297.84 262.789 297.969 262.84L304.015 265.179C304.164 265.244 304.298 265.34 304.408 265.46C304.518 265.58 304.602 265.722 304.653 265.877C304.705 266.032 304.723 266.196 304.707 266.358C304.692 266.52 304.642 266.677 304.561 266.819C303.135 269.261 302.324 270.362 300.573 273.471C299.497 275.383 297.397 279.764 295.911 282.402C294.425 285.041 291.735 283.709 292.12 282.479C293.827 276.955 293.537 273.872 293.076 271.43C292.991 270.995 293.064 270.544 293.281 270.158Z" fill="#263238"/>
<path d="M216.293 299.498H224.832C224.985 299.501 225.134 299.553 225.255 299.647C225.376 299.741 225.465 299.871 225.507 300.018L227.368 306.79C227.415 306.95 227.424 307.119 227.393 307.283C227.363 307.447 227.294 307.601 227.192 307.734C227.091 307.866 226.959 307.972 226.809 308.044C226.658 308.116 226.493 308.152 226.326 308.148C223.329 308.096 221.869 307.917 218.103 307.917C215.789 307.917 208.249 308.165 205.047 308.165C201.845 308.165 201.264 304.997 202.562 304.749C208.369 303.46 213.27 301.692 215.055 300.001C215.385 299.677 215.83 299.496 216.293 299.498Z" fill="#263238"/>
<path d="M211.836 285.067L214.851 293.623H222.126L218.864 284.384L211.836 285.067Z" fill="#A76755"/>
<path d="M286.663 255.727L281.48 260.756L288.337 266.101L293.52 261.081L286.663 255.727Z" fill="#A76755"/>
<path d="M181.189 115.072C181.189 115.072 178.286 117.283 197.849 155.461L225.737 146.453C221.604 135.258 219.333 128.265 217.198 103.22C213.062 103.677 208.964 104.434 204.936 105.483C200.63 106.566 196.4 107.933 192.273 109.573C186.944 111.861 181.189 115.072 181.189 115.072Z" fill="#0084CE"/>
<path d="M199.036 91.6235C199.548 95.9614 201.162 103.681 204.894 105.482C204.894 105.482 205.107 109.974 197.542 112.416C189.216 115.106 192.23 109.573 192.23 109.573C196.423 107.011 195.211 103.681 193.4 100.777L199.036 91.6235Z" fill="#B97964"/>
<path d="M185.041 113.005C187.099 111.938 189.72 110.64 192.23 109.59C196.362 107.919 200.609 106.547 204.937 105.482C207.37 104.816 209.829 104.321 211.904 103.971C212.101 104.552 211.512 106.054 210.068 108.129C205.5 111.921 195.757 116.848 188.576 116.668C185.433 115.499 184.648 114.26 185.041 113.005Z" fill="#B97964"/>
<path d="M210.06 108.13C206.958 112.288 203.251 115.957 199.062 119.017C195.495 118.583 191.979 117.796 188.567 116.669C195.715 116.848 205.458 111.921 210.06 108.13Z" fill="#263238"/>
<path d="M196.739 95.3552L193.4 100.76C193.836 101.434 194.21 102.146 194.519 102.887C196.175 102.075 198.284 99.676 197.883 97.7632C197.645 96.9 197.257 96.0851 196.739 95.3552Z" fill="#A76755"/>
<path d="M200.727 83.6139C201.154 90.7611 201.495 93.7753 198.353 97.857C193.631 103.988 184.759 102.98 182.197 96.0809C179.9 89.8901 179.584 79.2419 186.185 75.5872C187.635 74.7722 189.27 74.3411 190.933 74.3348C192.597 74.3285 194.235 74.7471 195.691 75.551C197.148 76.355 198.375 77.5176 199.256 78.9286C200.137 80.3396 200.644 81.9524 200.727 83.6139Z" fill="#B97964"/>
<path d="M214.843 70.805C216.457 63.7047 212.01 56.6401 204.91 55.0257C197.81 53.4112 190.745 57.8584 189.131 64.9586C187.516 72.0588 191.963 79.1235 199.064 80.7379C206.164 82.3523 213.228 77.9052 214.843 70.805Z" fill="#263238"/>
<path d="M198.695 73.6061C201.41 75.3993 202.759 78.1489 201.709 79.7457C200.659 81.3425 197.602 81.1888 194.878 79.3956C192.154 77.6024 190.813 74.8528 191.863 73.256C192.914 71.6592 195.971 71.8129 198.695 73.6061Z" fill="#0084CE"/>
<path opacity="0.6" d="M198.695 73.6061C201.41 75.3993 202.759 78.1489 201.709 79.7457C200.659 81.3425 197.602 81.1888 194.878 79.3956C192.154 77.6024 190.813 74.8528 191.863 73.256C192.914 71.6592 195.971 71.8129 198.695 73.6061Z" fill="#FAFAFA"/>
<path d="M197.251 88.4898C197.96 86.8503 195.492 81.9831 196.022 80.1643C194.604 78.8407 180.233 83.5201 181.394 80.1045C182.504 76.8255 186.005 72.4792 193.998 74.298C202.537 76.2449 203.28 83.6311 202.323 85.9879C201.367 88.3447 200.009 90.7954 200.009 90.7954L197.251 88.4898Z" fill="#263238"/>
<path d="M202.605 89.8816C202.623 91.2647 202.096 92.5992 201.137 93.5961C199.847 94.9025 198.293 93.9632 197.892 92.2725C197.525 90.7526 197.764 88.2336 199.42 87.5675C199.786 87.4253 200.181 87.377 200.569 87.4272C200.958 87.4774 201.328 87.6244 201.645 87.8548C201.962 88.0851 202.216 88.3914 202.384 88.7456C202.552 89.0997 202.628 89.4903 202.605 89.8816Z" fill="#B97964"/>
<path d="M197.849 155.461C197.849 155.461 184.921 218.514 192.128 239.306C199.625 260.935 211.828 291.129 211.828 291.129L223.227 290.48C223.227 290.48 213.834 252.328 211.52 235.096C208.352 211.341 221.921 147.725 221.921 147.725L197.849 155.461Z" fill="#0084CE"/>
<path opacity="0.6" d="M197.849 155.461C197.849 155.461 184.921 218.514 192.128 239.306C199.625 260.935 211.828 291.129 211.828 291.129L223.227 290.48C223.227 290.48 213.834 252.328 211.52 235.096C208.352 211.341 221.921 147.725 221.921 147.725L197.849 155.461Z" fill="#FAFAFA"/>
<path d="M224.124 290.754L210.931 291.514L208.813 286.322L223.364 284.811L224.124 290.754Z" fill="#0084CE"/>
<path opacity="0.2" d="M224.124 290.754L210.931 291.514L208.813 286.322L223.364 284.811L224.124 290.754Z" fill="black"/>
<path d="M211.52 160.312C209.539 167.638 211.195 178.619 214.936 186.321C215.849 180.344 216.823 174.555 217.745 169.371C215.824 165.657 213.706 162.361 211.52 160.312Z" fill="#0084CE"/>
<path opacity="0.4" d="M211.52 160.312C209.539 167.638 211.195 178.619 214.936 186.321C215.849 180.344 216.823 174.555 217.745 169.371C215.824 165.657 213.706 162.361 211.52 160.312Z" fill="#FAFAFA"/>
<path d="M205.21 153.079C205.21 153.079 224.406 198.959 237.12 224.149C247.367 244.523 285.391 265.845 285.391 265.845L292.223 258.604C292.223 258.604 263.805 233.371 256.717 219.555C234.038 175.332 238.7 156.016 225.755 146.453L205.21 153.079Z" fill="#0084CE"/>
<path opacity="0.6" d="M205.21 153.079C205.21 153.079 224.406 198.959 237.12 224.149C247.367 244.523 285.391 265.845 285.391 265.845L292.223 258.604C292.223 258.604 263.805 233.371 256.717 219.555C234.038 175.332 238.7 156.016 225.755 146.453L205.21 153.079Z" fill="#FAFAFA"/>
<path d="M293.495 257.571L284.102 267.553L278.159 264.428L288.978 253.395L293.495 257.571Z" fill="#0084CE"/>
<path opacity="0.2" d="M293.495 257.571L284.102 267.553L278.159 264.428L288.978 253.395L293.495 257.571Z" fill="black"/>
<path d="M225.627 144.685L227.685 146.777C227.847 146.94 227.685 147.213 227.36 147.315L198.114 156.708C197.858 156.794 197.61 156.708 197.542 156.58L196.492 154.172C196.415 154.001 196.586 153.788 196.859 153.694L225.097 144.583C225.187 144.553 225.283 144.546 225.376 144.564C225.468 144.582 225.555 144.624 225.627 144.685Z" fill="#263238"/>
<path d="M222.868 149.066L223.62 148.827C223.773 148.775 223.859 148.656 223.825 148.57L222.424 145.437C222.424 145.351 222.219 145.317 222.074 145.36L221.314 145.607C221.169 145.607 221.075 145.77 221.118 145.863L222.518 148.989C222.544 149.083 222.697 149.117 222.868 149.066Z" fill="#0084CE"/>
<path opacity="0.6" d="M222.868 149.066L223.62 148.827C223.773 148.775 223.859 148.656 223.825 148.57L222.424 145.437C222.424 145.351 222.219 145.317 222.074 145.36L221.314 145.607C221.169 145.607 221.075 145.77 221.118 145.863L222.518 148.989C222.544 149.083 222.697 149.117 222.868 149.066Z" fill="#FAFAFA"/>
<path d="M200.325 156.341L201.085 156.093C201.23 156.042 201.324 155.931 201.282 155.837L199.881 152.712C199.839 152.618 199.685 152.584 199.531 152.635L198.771 152.874C198.626 152.925 198.532 153.036 198.575 153.13L199.975 156.255C200.018 156.349 200.172 156.384 200.325 156.341Z" fill="#0084CE"/>
<path opacity="0.6" d="M200.325 156.341L201.085 156.093C201.23 156.042 201.324 155.931 201.282 155.837L199.881 152.712C199.839 152.618 199.685 152.584 199.531 152.635L198.771 152.874C198.626 152.925 198.532 153.036 198.575 153.13L199.975 156.255C200.018 156.349 200.172 156.384 200.325 156.341Z" fill="#FAFAFA"/>
<path d="M211.588 152.703L212.34 152.455C212.494 152.455 212.588 152.293 212.545 152.199L211.144 149.074C211.102 148.98 210.94 148.946 210.794 148.997L210.034 149.245C209.889 149.288 209.795 149.407 209.838 149.492L211.238 152.626C211.281 152.675 211.338 152.709 211.401 152.723C211.464 152.737 211.53 152.73 211.588 152.703Z" fill="#0084CE"/>
<path opacity="0.6" d="M211.588 152.703L212.34 152.455C212.494 152.455 212.588 152.293 212.545 152.199L211.144 149.074C211.102 148.98 210.94 148.946 210.794 148.997L210.034 149.245C209.889 149.288 209.795 149.407 209.838 149.492L211.238 152.626C211.281 152.675 211.338 152.709 211.401 152.723C211.464 152.737 211.53 152.73 211.588 152.703Z" fill="#FAFAFA"/>
<path d="M190.207 86.91C190.275 87.4821 190.027 87.9945 189.652 88.0372C189.276 88.0798 188.909 87.6529 188.84 87.0722C188.772 86.4916 189.02 85.9878 189.395 85.9451C189.771 85.9024 190.138 86.3293 190.207 86.91Z" fill="#263238"/>
<path d="M183.674 87.7041C183.751 88.2847 183.495 88.7885 183.119 88.8312C182.743 88.8739 182.376 88.447 182.308 87.8749C182.239 87.3028 182.487 86.7904 182.863 86.7392C183.238 86.6879 183.589 87.0978 183.674 87.7041Z" fill="#263238"/>
<path d="M183.034 86.7564L181.599 86.5259C181.599 86.5259 182.444 87.5249 183.034 86.7564Z" fill="#263238"/>
<path d="M185.527 88.4897C185.171 89.869 184.628 91.1934 183.914 92.4262C184.235 92.5977 184.59 92.6986 184.953 92.7222C185.317 92.7458 185.682 92.6914 186.023 92.5629L185.527 88.4897Z" fill="#A24E3F"/>
<path d="M188.311 94.5866C188.27 94.5871 188.23 94.5726 188.198 94.546C188.167 94.5193 188.146 94.4822 188.14 94.4414C188.137 94.3956 188.151 94.3502 188.18 94.3141C188.208 94.2779 188.248 94.2533 188.294 94.245C189.013 94.1734 189.706 93.9335 190.315 93.5449C190.925 93.1563 191.435 92.6298 191.803 92.0078C191.812 91.9868 191.826 91.9678 191.842 91.9521C191.859 91.9363 191.879 91.9241 191.9 91.9161C191.922 91.9082 191.945 91.9046 191.968 91.9057C191.991 91.9068 192.013 91.9125 192.034 91.9224C192.054 91.9324 192.072 91.9463 192.087 91.9633C192.102 91.9804 192.113 92.0002 192.12 92.0216C192.128 92.0431 192.13 92.0657 192.129 92.0883C192.127 92.1108 192.121 92.1328 192.111 92.153C191.723 92.8314 191.177 93.4067 190.52 93.8302C189.864 94.2537 189.114 94.5132 188.336 94.5866H188.311Z" fill="#263238"/>
<path d="M191.018 84.8608C190.936 84.8599 190.857 84.8296 190.796 84.7754C190.48 84.4834 190.099 84.2712 189.685 84.1568C189.27 84.0424 188.834 84.0291 188.413 84.1179C188.37 84.1309 188.324 84.1349 188.279 84.1299C188.233 84.1248 188.189 84.1107 188.15 84.0884C188.11 84.0661 188.075 84.0361 188.047 84.0001C188.019 83.9641 187.998 83.9229 187.987 83.8788C187.974 83.8356 187.97 83.7903 187.975 83.7455C187.98 83.7008 187.994 83.6576 188.017 83.6184C188.039 83.5793 188.069 83.5451 188.105 83.518C188.141 83.4908 188.182 83.4712 188.226 83.4604C188.755 83.3441 189.305 83.3555 189.829 83.4936C190.353 83.6317 190.837 83.8925 191.24 84.2545C191.272 84.2863 191.298 84.3242 191.315 84.366C191.333 84.4077 191.342 84.4526 191.342 84.4979C191.342 84.5432 191.333 84.588 191.315 84.6298C191.298 84.6716 191.272 84.7095 191.24 84.7413C191.183 84.8073 191.104 84.8499 191.018 84.8608Z" fill="#263238"/>
<path d="M180.302 85.057C180.251 85.069 180.198 85.069 180.148 85.057C180.069 85.0135 180.01 84.9414 179.983 84.8555C179.956 84.7696 179.963 84.6767 180.003 84.5959C180.236 84.1076 180.583 83.6819 181.013 83.3538C181.444 83.0256 181.946 82.8046 182.479 82.7088C182.568 82.6991 182.658 82.7251 182.728 82.781C182.799 82.837 182.844 82.9184 182.855 83.0076C182.861 83.0525 182.858 83.0982 182.846 83.1419C182.834 83.1856 182.814 83.2266 182.786 83.2623C182.758 83.2981 182.723 83.328 182.684 83.3502C182.644 83.3724 182.601 83.3866 182.556 83.3919C182.134 83.4704 181.738 83.6485 181.399 83.9115C181.06 84.1744 180.79 84.5144 180.609 84.9033C180.576 84.9538 180.53 84.9946 180.476 85.0216C180.422 85.0486 180.362 85.0608 180.302 85.057Z" fill="#263238"/>
<path d="M222.869 109.888L223.193 110.298L223.595 110.785C223.868 111.11 224.15 111.443 224.449 111.767C225.038 112.425 225.653 113.074 226.31 113.688C227.597 114.951 228.957 116.137 230.383 117.241C231.831 118.337 233.333 119.36 234.883 120.306C235.66 120.776 236.454 121.22 237.257 121.655L238.478 122.279L239.067 122.577C239.213 122.646 239.358 122.714 239.494 122.765C239.93 122.947 240.397 123.043 240.869 123.047C241.303 123.022 241.72 122.868 242.065 122.603C243.209 121.655 244.113 120.449 244.703 119.085C245.496 117.44 246.133 115.725 246.607 113.962C247.135 112.163 247.571 110.339 247.914 108.497L251.56 108.727C251.674 112.931 251.073 117.123 249.784 121.126C249.418 122.217 248.947 123.269 248.375 124.268C247.741 125.406 246.921 126.431 245.95 127.3C244.793 128.326 243.38 129.02 241.86 129.306C240.382 129.564 238.864 129.458 237.436 128.999C237.103 128.905 236.796 128.785 236.48 128.666L235.737 128.358L234.286 127.752C233.321 127.317 232.373 126.898 231.442 126.369C229.574 125.383 227.774 124.273 226.054 123.047C224.332 121.805 222.692 120.453 221.144 119C220.375 118.265 219.633 117.488 218.907 116.686C218.548 116.276 218.189 115.832 217.848 115.439L217.327 114.764C217.148 114.525 217.011 114.337 216.772 113.996L222.869 109.888Z" fill="#B97964"/>
<path d="M228.923 114.389L223.578 123.363L220.973 120.904L225.909 111.912L228.923 114.389Z" fill="#263238"/>
<path d="M217.233 103.219C220.307 103.168 227.77 111.98 227.77 111.98L221.28 123.278C221.28 123.278 213.014 115.994 213.023 112.006C213.031 107.848 213.732 103.322 217.233 103.219Z" fill="#0084CE"/>
<path d="M291.881 273.991C291.643 273.982 291.415 273.895 291.232 273.744C291.146 273.687 291.078 273.607 291.034 273.514C290.99 273.42 290.973 273.317 290.984 273.214C291.061 272.292 293.375 271.08 293.631 270.943C293.659 270.925 293.692 270.915 293.725 270.915C293.759 270.915 293.791 270.925 293.819 270.943C293.845 270.964 293.864 270.993 293.875 271.024C293.885 271.056 293.887 271.09 293.879 271.122C293.614 272.045 293.025 273.633 292.171 273.915C292.08 273.957 291.981 273.983 291.881 273.991ZM293.426 271.43C292.521 271.942 291.368 272.745 291.326 273.223C291.319 273.269 291.327 273.316 291.348 273.358C291.37 273.399 291.404 273.433 291.445 273.454C291.525 273.531 291.624 273.586 291.733 273.611C291.841 273.637 291.954 273.632 292.06 273.599C292.53 273.462 293.025 272.659 293.426 271.447V271.43Z" fill="#0084CE"/>
<path d="M291.565 271.754C291.189 271.786 290.814 271.693 290.497 271.49C290.394 271.401 290.325 271.28 290.3 271.146C290.275 271.013 290.297 270.875 290.361 270.755C290.407 270.631 290.481 270.52 290.577 270.43C290.673 270.339 290.789 270.272 290.916 270.234C291.906 269.901 293.716 270.9 293.793 270.943C293.821 270.958 293.845 270.98 293.861 271.007C293.878 271.034 293.887 271.065 293.887 271.097C293.886 271.126 293.878 271.155 293.863 271.18C293.848 271.205 293.827 271.227 293.802 271.242C293.104 271.58 292.34 271.755 291.565 271.754ZM291.385 270.508C291.264 270.506 291.143 270.523 291.027 270.559C290.948 270.583 290.876 270.625 290.815 270.682C290.754 270.738 290.707 270.807 290.677 270.883C290.591 271.088 290.677 271.174 290.677 271.233C291.061 271.558 292.478 271.421 293.29 271.088C292.698 270.774 292.051 270.577 291.385 270.508Z" fill="#0084CE"/>
<path d="M212.502 300.915C211.904 300.965 211.307 300.825 210.794 300.514C210.66 300.415 210.551 300.287 210.475 300.138C210.399 299.99 210.36 299.826 210.359 299.66C210.349 299.57 210.363 299.478 210.401 299.396C210.438 299.313 210.497 299.242 210.572 299.19C211.349 298.661 214.269 299.993 214.842 300.258C214.874 300.274 214.901 300.3 214.918 300.332C214.935 300.364 214.941 300.401 214.935 300.437C214.933 300.472 214.919 300.505 214.895 300.531C214.872 300.557 214.842 300.575 214.807 300.582C214.052 300.77 213.28 300.882 212.502 300.915ZM211.136 299.438C211.02 299.427 210.904 299.451 210.803 299.506C210.777 299.524 210.757 299.548 210.745 299.577C210.732 299.606 210.729 299.638 210.734 299.668C210.737 299.78 210.766 299.89 210.817 299.989C210.869 300.088 210.943 300.174 211.033 300.24C211.708 300.753 213.313 300.556 214.252 300.386C213.267 299.915 212.216 299.595 211.136 299.438Z" fill="#0084CE"/>
<path d="M214.808 300.616H214.739C213.775 300.223 211.828 298.661 211.939 297.85C211.939 297.67 212.075 297.448 212.519 297.397C214.227 297.175 214.944 300.292 214.97 300.42C214.977 300.45 214.976 300.482 214.967 300.512C214.958 300.542 214.941 300.569 214.919 300.591C214.885 300.61 214.847 300.619 214.808 300.616ZM212.673 297.722H212.562C212.383 297.722 212.28 297.798 212.272 297.884C212.212 298.345 213.553 299.592 214.543 300.121C214.33 299.387 213.698 297.722 212.673 297.722Z" fill="#0084CE"/>
<path d="M189.566 85.9537L188.132 85.7231C188.132 85.7231 188.977 86.7222 189.566 85.9537Z" fill="#263238"/>
<path d="M136.146 26.283C134.635 28.1786 126.309 30.4073 119.691 29.7925C117.412 44.7529 125.378 61.9761 125.378 61.9761C125.378 61.9761 142.67 59.9182 143.097 52.7966C143.524 45.6751 136.146 26.283 136.146 26.283Z" fill="#0084CE"/>
<path opacity="0.4" d="M136.146 26.283C134.635 28.1786 126.309 30.4073 119.691 29.7925C117.412 44.7529 125.378 61.9761 125.378 61.9761C125.378 61.9761 142.67 59.9182 143.097 52.7966C143.524 45.6751 136.146 26.283 136.146 26.283Z" fill="#FAFAFA"/>
<path d="M267.041 14.9004C268.586 17.0778 276.433 19.2382 282.505 18.1111C285.758 35.821 279.73 56.8612 279.73 56.8612C279.73 56.8612 263.616 55.4266 262.652 46.9644C261.687 38.5023 267.041 14.9004 267.041 14.9004Z" fill="#0084CE"/>
<path opacity="0.4" d="M267.041 14.9004C268.586 17.0778 276.433 19.2382 282.505 18.1111C285.758 35.821 279.73 56.8612 279.73 56.8612C279.73 56.8612 263.616 55.4266 262.652 46.9644C261.687 38.5023 267.041 14.9004 267.041 14.9004Z" fill="#FAFAFA"/>
<path d="M153.702 168.278C153.579 168.296 153.454 168.29 153.334 168.259C153.213 168.229 153.1 168.174 153.001 168.1C152.902 168.025 152.818 167.932 152.756 167.824C152.693 167.717 152.652 167.599 152.635 167.476L132.355 23.6188C132.338 23.4918 132.347 23.3627 132.381 23.2392C132.416 23.1158 132.474 23.0004 132.554 22.9001C132.634 22.7997 132.733 22.7164 132.845 22.655C132.958 22.5937 133.081 22.5555 133.209 22.5429C133.332 22.5261 133.457 22.5337 133.578 22.5653C133.698 22.597 133.811 22.6521 133.91 22.7274C134.01 22.8027 134.093 22.8968 134.156 23.0044C134.218 23.1119 134.259 23.2307 134.276 23.3541L154.556 167.202C154.573 167.33 154.564 167.459 154.53 167.582C154.495 167.706 154.437 167.821 154.357 167.921C154.277 168.022 154.178 168.105 154.066 168.166C153.953 168.228 153.83 168.266 153.702 168.278Z" fill="#0084CE"/>
<path opacity="0.2" d="M153.702 168.278C153.579 168.296 153.454 168.29 153.334 168.259C153.213 168.229 153.1 168.174 153.001 168.1C152.902 168.025 152.818 167.932 152.756 167.824C152.693 167.717 152.652 167.599 152.635 167.476L132.355 23.6188C132.338 23.4918 132.347 23.3627 132.381 23.2392C132.416 23.1158 132.474 23.0004 132.554 22.9001C132.634 22.7997 132.733 22.7164 132.845 22.655C132.958 22.5937 133.081 22.5555 133.209 22.5429C133.332 22.5261 133.457 22.5337 133.578 22.5653C133.698 22.597 133.811 22.6521 133.91 22.7274C134.01 22.8027 134.093 22.8968 134.156 23.0044C134.218 23.1119 134.259 23.2307 134.276 23.3541L154.556 167.202C154.573 167.33 154.564 167.459 154.53 167.582C154.495 167.706 154.437 167.821 154.357 167.921C154.277 168.022 154.178 168.105 154.066 168.166C153.953 168.228 153.83 168.266 153.702 168.278Z" fill="black"/>
<path d="M250.338 157.588C250.466 157.604 250.595 157.595 250.718 157.561C250.842 157.527 250.957 157.468 251.057 157.388C251.158 157.309 251.241 157.21 251.302 157.097C251.364 156.985 251.402 156.861 251.414 156.734L271.737 12.8853C271.755 12.7619 271.749 12.6362 271.718 12.5153C271.688 12.3944 271.634 12.2807 271.559 12.1808C271.485 12.0808 271.391 11.9966 271.284 11.9328C271.177 11.8691 271.058 11.8271 270.935 11.8094C270.808 11.7927 270.678 11.8018 270.555 11.836C270.432 11.8702 270.316 11.9289 270.216 12.0085C270.115 12.0882 270.032 12.1872 269.971 12.2996C269.909 12.4121 269.871 12.5358 269.859 12.6633L249.536 156.512C249.502 156.76 249.566 157.013 249.717 157.214C249.867 157.415 250.09 157.55 250.338 157.588Z" fill="#0084CE"/>
<path opacity="0.2" d="M250.338 157.588C250.466 157.604 250.595 157.595 250.718 157.561C250.842 157.527 250.957 157.468 251.057 157.388C251.158 157.309 251.241 157.21 251.302 157.097C251.364 156.985 251.402 156.861 251.414 156.734L271.737 12.8853C271.755 12.7619 271.749 12.6362 271.718 12.5153C271.688 12.3944 271.634 12.2807 271.559 12.1808C271.485 12.0808 271.391 11.9966 271.284 11.9328C271.177 11.8691 271.058 11.8271 270.935 11.8094C270.808 11.7927 270.678 11.8018 270.555 11.836C270.432 11.8702 270.316 11.9289 270.216 12.0085C270.115 12.0882 270.032 12.1872 269.971 12.2996C269.909 12.4121 269.871 12.5358 269.859 12.6633L249.536 156.512C249.502 156.76 249.566 157.013 249.717 157.214C249.867 157.415 250.09 157.55 250.338 157.588Z" fill="black"/>
<path d="M131.544 26.6588L135.386 54.9059C135.41 55.0844 135.472 55.2557 135.568 55.408C135.664 55.5603 135.791 55.69 135.942 55.7882C136.093 55.8864 136.264 55.9507 136.442 55.9767C136.62 56.0028 136.802 55.9899 136.974 55.9391C145.565 53.4798 193.332 41.2178 266.708 49.0225C267.019 49.0584 267.333 48.9755 267.586 48.7903C267.84 48.6051 268.014 48.3313 268.074 48.0234C269.457 40.8677 271.84 20.485 272.446 15.2677C272.482 14.9388 272.388 14.6088 272.184 14.3485C271.979 14.0883 271.681 13.9186 271.353 13.8758C261.499 12.6291 194.237 5.17458 132.406 25.2925C132.126 25.3852 131.887 25.572 131.73 25.8212C131.573 26.0703 131.507 26.3664 131.544 26.6588Z" fill="#0084CE"/>
<path d="M143.865 31.5944L147.913 30.7405L150.773 38.178L151.499 30.0147L155.538 29.1608L159.082 36.4531L159.133 28.435L163.163 27.5811L162.634 42.012L158.458 42.8659L154.454 34.6514L153.6 43.8393L149.424 44.6933L143.865 31.5944Z" fill="#FAFAFA"/>
<path d="M165.145 27.4273L176.664 25.7195L177.04 28.6911L169.833 29.7499L170.115 31.97L176.801 30.9881L177.159 33.8316L170.473 34.8135L170.781 37.5716L178.201 36.4872L178.603 39.6466L166.87 41.3544L165.145 27.4273Z" fill="#FAFAFA"/>
<path d="M179.593 25.3864L183.914 24.9167L184.836 35.4795L191.573 34.7537L191.88 38.1693L180.78 39.3648L179.593 25.3864Z" fill="#FAFAFA"/>
<path d="M202.426 31.6453L206.277 32.4992C206.117 33.4857 205.754 34.428 205.209 35.2659C204.71 36.0202 204.029 36.6369 203.228 37.0591C202.27 37.5212 201.226 37.7827 200.163 37.8276C198.893 37.9629 197.61 37.8261 196.397 37.4263C195.348 36.9726 194.456 36.2178 193.836 35.2574C193.018 34.0012 192.577 32.5377 192.563 31.0391C192.339 29.073 192.904 27.0984 194.134 25.5485C194.793 24.8489 195.587 24.2894 196.467 23.9035C197.348 23.5177 198.297 23.3133 199.258 23.3027C200.707 23.1133 202.179 23.382 203.468 24.0712C204.599 24.8237 205.452 25.9281 205.893 27.2136L202.11 28.3407C202.006 28.0119 201.847 27.703 201.64 27.4271C201.378 27.1169 201.044 26.8764 200.667 26.7269C200.053 26.4762 199.369 26.4556 198.742 26.669C198.114 26.8824 197.585 27.3154 197.251 27.8882C196.836 28.7656 196.679 29.7429 196.799 30.7061C196.873 32.2602 197.157 33.3105 197.652 33.857C197.91 34.1293 198.229 34.337 198.582 34.4632C198.935 34.5893 199.313 34.6303 199.685 34.5828C200.035 34.5785 200.38 34.5002 200.698 34.353C201.016 34.2059 201.299 33.9932 201.529 33.7289C202.001 33.1225 202.31 32.4051 202.426 31.6453Z" fill="#FAFAFA"/>
<path d="M207.857 30.0145C207.79 29.0323 207.918 28.0466 208.235 27.1144C208.551 26.1822 209.05 25.322 209.701 24.5837C210.399 23.8964 211.228 23.3563 212.139 22.9955C213.05 22.6347 214.024 22.4604 215.004 22.4831C215.976 22.3862 216.958 22.4876 217.89 22.7812C218.822 23.0747 219.685 23.5543 220.426 24.1909C221.091 24.8823 221.608 25.7027 221.945 26.6014C222.281 27.5002 222.43 28.4583 222.381 29.4168C222.455 30.8192 222.192 32.2189 221.613 33.4984C221.09 34.5641 220.268 35.4543 219.248 36.0601C218.06 36.7231 216.722 37.0701 215.362 37.0677C214.019 37.1621 212.672 36.9459 211.426 36.4358C210.354 35.943 209.459 35.1321 208.864 34.1132C208.164 32.8632 207.816 31.4467 207.857 30.0145ZM212.186 29.895C212.11 30.9765 212.412 32.0508 213.04 32.9348C213.306 33.2361 213.64 33.4704 214.014 33.6187C214.388 33.7671 214.791 33.8253 215.192 33.7887C215.601 33.798 216.007 33.7144 216.38 33.5444C216.753 33.3743 217.082 33.1221 217.343 32.8068C217.939 31.8138 218.194 30.6534 218.069 29.5022C218.142 28.4712 217.839 27.4488 217.215 26.6245C216.942 26.3244 216.604 26.0912 216.226 25.9431C215.849 25.795 215.442 25.736 215.038 25.7706C214.637 25.7694 214.24 25.8585 213.878 26.0315C213.516 26.2045 213.197 26.4567 212.946 26.7697C212.345 27.6918 212.077 28.7913 212.186 29.8864V29.895Z" fill="#FAFAFA"/>
<path d="M225.012 22.449H230.707L232.671 31.0478L235.088 22.5087L240.783 22.56L240.399 36.6494H236.847L237.137 25.8987L234.114 36.6238H230.904L228.47 25.8475L228.18 36.5981H224.627L225.012 22.449Z" fill="#FAFAFA"/>
<path d="M243.909 22.6965L255.496 23.2174L255.317 26.2231L248.059 25.8987L247.913 28.1786L254.642 28.4774L254.463 31.3039L247.734 31.005L247.563 33.7887L255.026 34.1132L254.821 37.3068L243.021 36.7774L243.909 22.6965Z" fill="#FAFAFA"/>
</svg>
