<svg width="38" height="38" viewBox="0 0 38 38" fill="none" xmlns="http://www.w3.org/2000/svg">
<rect width="38" height="38" rx="5" fill="#0084CE" fill-opacity="0.12"/>
<path fill-rule="evenodd" clip-rule="evenodd" d="M18.063 9.46888C18.309 9.27213 18.6108 9.15784 18.9254 9.14223C19.2401 9.12661 19.5517 9.21046 19.816 9.38188L19.937 9.46888L24.249 12.9189C24.4594 13.087 24.6336 13.2959 24.7613 13.5331C24.889 13.7702 24.9675 14.0307 24.992 14.2989L25 14.4799V25.9999H26V17.4999C26 17.3829 26.041 17.2695 26.1159 17.1796C26.1908 17.0897 26.2949 17.0289 26.41 17.0079L26.5 16.9999H27C27.5046 16.9997 27.9906 17.1903 28.3605 17.5334C28.7305 17.8765 28.9572 18.3467 28.995 18.8499L29 18.9999V26.8999C28.9999 27.1708 28.8998 27.4321 28.719 27.6338C28.5382 27.8355 28.2893 27.9633 28.02 27.9929L27.9 27.9999H10.1C9.82894 28 9.56738 27.9001 9.36548 27.7192C9.16358 27.5384 9.03557 27.2893 9.006 27.0199L9 26.8999V18.9999C8.99984 18.4953 9.19041 18.0093 9.5335 17.6393C9.87659 17.2694 10.3468 17.0427 10.85 17.0049L11 16.9999H11.5C11.617 16.9998 11.7304 17.0409 11.8203 17.1158C11.9102 17.1907 11.9709 17.2948 11.992 17.4099L12 17.4999V25.9999H13V14.4799C13 14.2106 13.0544 13.944 13.1599 13.6962C13.2654 13.4484 13.4198 13.2245 13.614 13.0379L13.751 12.9179L18.063 9.46888ZM19 15.9989C18.4696 15.9989 17.9609 16.2096 17.5858 16.5847C17.2107 16.9597 17 17.4685 17 17.9989C17 18.5293 17.2107 19.038 17.5858 19.4131C17.9609 19.7882 18.4696 19.9989 19 19.9989C19.5304 19.9989 20.0391 19.7882 20.4142 19.4131C20.7893 19.038 21 18.5293 21 17.9989C21 17.4685 20.7893 16.9597 20.4142 16.5847C20.0391 16.2096 19.5304 15.9989 19 15.9989Z" fill="#0084CE"/>
</svg>
