<svg width="38" height="38" viewBox="0 0 38 38" fill="none" xmlns="http://www.w3.org/2000/svg">
<rect width="38" height="38" rx="5" fill="#0084CE" fill-opacity="0.12"/>
<path d="M24.7549 20.9999C25.3513 21.0004 25.9231 21.2377 26.3446 21.6596C26.7661 22.0815 27.0029 22.6535 27.0029 23.2499V24.1679C27.0029 24.7409 26.8239 25.2996 26.4909 25.7659C24.9449 27.9299 22.4209 29.0009 19.0009 29.0009C15.5789 29.0009 13.0559 27.9289 11.5139 25.7649C11.182 25.2989 11.0038 24.741 11.0039 24.1689V23.2489C11.0042 22.6525 11.2412 22.0806 11.6629 21.6589C12.0846 21.2372 12.6565 21.0001 13.2529 20.9999H24.7549ZM18.9999 9.00488C19.6565 9.00488 20.3067 9.13421 20.9133 9.38548C21.52 9.63676 22.0711 10.0051 22.5354 10.4693C22.9997 10.9336 23.368 11.4848 23.6193 12.0915C23.8706 12.6981 23.9999 13.3483 23.9999 14.0049C23.9999 14.6615 23.8706 15.3117 23.6193 15.9183C23.368 16.5249 22.9997 17.0761 22.5354 17.5404C22.0711 18.0047 21.52 18.373 20.9133 18.6243C20.3067 18.8756 19.6565 19.0049 18.9999 19.0049C17.6738 19.0049 16.4021 18.4781 15.4644 17.5404C14.5267 16.6027 13.9999 15.331 13.9999 14.0049C13.9999 12.6788 14.5267 11.407 15.4644 10.4693C16.4021 9.53167 17.6738 9.00488 18.9999 9.00488Z" fill="#0084CE"/>
</svg>
