<svg width="50" height="50" viewBox="0 0 50 50" fill="none" xmlns="http://www.w3.org/2000/svg">
<circle opacity="0.2" cx="25" cy="25" r="25" fill="#F28F8F"/>
<path d="M30.25 18.5H19.75C19.6837 18.5 19.6201 18.5263 19.5732 18.5732C19.5263 18.6201 19.5 18.6837 19.5 18.75V19.35C19.5049 19.8736 19.6367 20.3882 19.884 20.8497C20.1313 21.3112 20.4868 21.7059 20.92 22L23 23.48C23.4205 23.758 23.7699 24.1309 24.02 24.5686C24.2701 25.0062 24.414 25.4966 24.44 26H25.56C25.586 25.4966 25.7299 25.0062 25.98 24.5686C26.2301 24.1309 26.5795 23.758 27 23.48L29.08 22C29.5132 21.7059 29.8687 21.3112 30.116 20.8497C30.3633 20.3882 30.4951 19.8736 30.5 19.35V18.75C30.5 18.6837 30.4737 18.6201 30.4268 18.5732C30.3799 18.5263 30.3163 18.5 30.25 18.5ZM19.75 36C19.0207 36 18.3212 35.7103 17.8055 35.1945C17.2897 34.6788 17 33.9793 17 33.25V32.83C17.0001 31.8371 17.2574 30.8612 17.7466 29.9973C18.2359 29.1333 18.9406 28.4108 19.792 27.9L21.602 26.814C21.7099 26.7492 21.7998 26.6583 21.8633 26.5497C21.9269 26.441 21.9621 26.3182 21.9657 26.1924C21.9692 26.0665 21.9411 25.9419 21.8838 25.8298C21.8266 25.7177 21.742 25.6218 21.638 25.551L19.517 24.108C18.7415 23.5807 18.1068 22.8718 17.6681 22.043C17.2294 21.2143 17 20.2907 17 19.353V18.75C17 18.0207 17.2897 17.3212 17.8055 16.8055C18.3212 16.2897 19.0207 16 19.75 16H30.25C30.6111 16 30.9687 16.0711 31.3024 16.2093C31.636 16.3475 31.9392 16.5501 32.1945 16.8055C32.4499 17.0608 32.6525 17.364 32.7907 17.6976C32.9289 18.0313 33 18.3889 33 18.75V19.354C32.9998 20.2916 32.7704 21.2149 32.3317 22.0435C31.893 22.8721 31.2583 23.5808 30.483 24.108L28.362 25.551C28.258 25.6218 28.1734 25.7177 28.1162 25.8298C28.0589 25.9419 28.0308 26.0665 28.0343 26.1924C28.0379 26.3182 28.0731 26.441 28.1367 26.5497C28.2002 26.6583 28.2901 26.7492 28.398 26.814L30.208 27.9C31.0594 28.4108 31.7641 29.1333 32.2534 29.9973C32.7426 30.8612 32.9999 31.8371 33 32.83V33.25C33 33.6111 32.9289 33.9687 32.7907 34.3024C32.6525 34.636 32.4499 34.9392 32.1945 35.1945C31.9392 35.4499 31.636 35.6525 31.3024 35.7907C30.9687 35.9289 30.6111 36 30.25 36H19.75ZM18.5 33.25C18.5 33.94 19.06 34.5 19.75 34.5H30.25C30.94 34.5 31.5 33.94 31.5 33.25V32.83C31.4998 32.0964 31.3097 31.3752 30.9482 30.7369C30.5867 30.0985 30.0661 29.5645 29.437 29.187L27.627 28.1C26.217 27.255 26.16 25.234 27.519 24.31L29.639 22.868C30.2123 22.4783 30.6817 21.9543 31.006 21.3416C31.3304 20.729 31.5 20.0462 31.5 19.353V18.75C31.5 18.06 30.94 17.5 30.25 17.5H19.75C19.06 17.5 18.5 18.06 18.5 18.75V19.354C18.5001 20.047 18.6696 20.7294 18.9937 21.3419C19.3179 21.9544 19.787 22.4783 20.36 22.868L22.481 24.31C23.84 25.234 23.783 27.255 22.374 28.1L20.564 29.187C19.9348 29.5644 19.4139 30.0983 19.0522 30.7367C18.6905 31.3751 18.5003 32.0963 18.5 32.83V33.25Z" fill="#E62121"/>
</svg>
