<svg width="50" height="50" viewBox="0 0 50 50" fill="none" xmlns="http://www.w3.org/2000/svg">
<circle opacity="0.15" cx="25" cy="25" r="25" fill="#0084CE"/>
<path d="M24.375 26.1133H24.4297C25.6016 26.1445 26.5391 27.0977 26.5391 28.2695C26.5391 29.2695 25.8594 30.1055 24.9375 30.3555V31.2305C24.9375 31.543 24.6875 31.793 24.375 31.793C24.0625 31.793 23.8125 31.543 23.8125 31.2305V30.3555C23.3535 30.2319 22.948 29.9607 22.6585 29.5837C22.369 29.2067 22.2118 28.7448 22.2109 28.2695C22.2109 27.957 22.4609 27.707 22.7734 27.707C23.0859 27.707 23.3359 27.957 23.3359 28.2695C23.3359 28.8477 23.7969 29.3086 24.3672 29.3086C24.9375 29.3086 25.4063 28.8398 25.4063 28.2695C25.4063 27.6992 24.9375 27.2305 24.3672 27.2305H24.3125C23.7505 27.2152 23.2166 26.9815 22.8241 26.5788C22.4317 26.1762 22.2117 25.6364 22.2109 25.0742C22.2109 24.0742 22.8906 23.2383 23.8125 22.9883V22.1133C23.8125 21.8008 24.0625 21.5508 24.375 21.5508C24.6875 21.5508 24.9375 21.8008 24.9375 22.1133V22.9883C25.8594 23.2383 26.5391 24.0742 26.5391 25.0742C26.5391 25.3867 26.2891 25.6367 25.9766 25.6367C25.6641 25.6367 25.4141 25.3867 25.4141 25.0742C25.4141 24.5039 24.9453 24.0352 24.375 24.0352C23.8047 24.0352 23.3359 24.5039 23.3359 25.0742C23.3359 25.6445 23.8047 26.1133 24.375 26.1133Z" fill="#0084CE"/>
<path d="M20.2281 14.9844L22.4047 17.5313L22.1695 17.7938C17.6898 18.7985 14.3438 22.7992 14.3438 27.5821C14.3438 31.7867 17.7562 35.1992 21.9609 35.1992H26.7812C30.9859 35.1992 34.3984 31.7875 34.3984 27.5828C34.4062 22.7992 31.0602 18.7985 26.5805 17.7938C26.5989 17.6287 26.569 17.4618 26.4945 17.3133L28.3461 15.1938L28.4656 15.0094C28.6052 14.705 28.6409 14.3631 28.5672 14.0364C28.4936 13.7097 28.3146 13.4163 28.0579 13.2012C27.8012 12.9861 27.481 12.8613 27.1464 12.846C26.8119 12.8307 26.4815 12.9257 26.2063 13.1164L25.5477 12.3352C25.3999 12.1699 25.219 12.0375 25.0167 11.9468C24.8144 11.856 24.5952 11.809 24.3735 11.8086C24.1518 11.8082 23.9325 11.8546 23.7299 11.9446C23.5273 12.0347 23.3459 12.1664 23.1977 12.3313L22.5078 13.1016C22.2332 12.9069 21.9022 12.8081 21.5658 12.8205C21.2294 12.8328 20.9065 12.9557 20.647 13.17C20.3875 13.3844 20.2058 13.6783 20.1301 14.0062C20.0544 14.3342 20.0888 14.678 20.2281 14.9844ZM23.1961 16.0664L21.8711 14.5352C22.179 14.6832 22.5272 14.7252 22.8614 14.6545C23.1957 14.5839 23.4971 14.4046 23.7188 14.1446L24.3438 13.3336L25.0375 14.1555C25.2538 14.407 25.5456 14.582 25.8694 14.6542C26.1932 14.7264 26.5317 14.6921 26.8344 14.5563L25.5156 16.0664H23.1961ZM15.9062 27.5821C15.9062 22.9039 19.6969 19.1133 24.375 19.1133C29.0531 19.1133 32.8438 22.9039 32.8359 27.5805V27.5821C32.8353 29.1877 32.1972 30.7273 31.0619 31.8627C29.9265 32.998 28.3869 33.6361 26.7812 33.6367H21.9609C20.3553 33.6361 18.8157 32.998 17.6803 31.8627C16.545 30.7273 15.9069 29.1877 15.9062 27.5821Z" fill="#0084CE"/>
</svg>
