<svg width="51" height="50" viewBox="0 0 51 50" fill="none" xmlns="http://www.w3.org/2000/svg">
<circle opacity="0.2" cx="25.9402" cy="25" r="25" fill="#FCC43E"/>
<path d="M35 17V23H33V20.425L29.025 24.375C29.3417 24.8417 29.5833 25.3377 29.75 25.863C29.9167 26.3883 30 26.934 30 27.5C30 29.0333 29.4667 30.3333 28.4 31.4C27.3333 32.4667 26.0333 33 24.5 33C22.9667 33 21.6667 32.4667 20.6 31.4C19.5333 30.3333 19 29.0333 19 27.5C19 25.9667 19.5333 24.6667 20.6 23.6C21.6667 22.5333 22.9667 22 24.5 22C25.05 22 25.5917 22.079 26.125 22.237C26.6583 22.395 27.15 22.641 27.6 22.975L31.575 19H29V17H35ZM24.5 24C23.5333 24 22.7083 24.3417 22.025 25.025C21.3417 25.7083 21 26.5333 21 27.5C21 28.4667 21.3417 29.2917 22.025 29.975C22.7083 30.6583 23.5333 31 24.5 31C25.4667 31 26.2917 30.6583 26.975 29.975C27.6583 29.2917 28 28.4667 28 27.5C28 26.5333 27.6583 25.7083 26.975 25.025C26.2917 24.3417 25.4667 24 24.5 24Z" fill="#B97964"/>
</svg>
