<svg width="51" height="50" viewBox="0 0 51 50" fill="none" xmlns="http://www.w3.org/2000/svg">
<circle opacity="0.2" cx="25.8805" cy="25" r="25" fill="#E62121"/>
<path d="M25 34V32H23V30H25V27.9C23.6833 27.6667 22.604 27.0373 21.762 26.012C20.92 24.9867 20.4993 23.7993 20.5 22.45C20.5 20.9333 21.0377 19.646 22.113 18.588C23.1883 17.53 24.484 17.0007 26 17C27.516 16.9993 28.812 17.5287 29.888 18.588C30.964 19.6473 31.5013 20.9347 31.5 22.45C31.5 23.8 31.079 24.9877 30.237 26.013C29.395 27.0383 28.316 27.6673 27 27.9V30H29V32H27V34H25ZM26 26C26.9667 26 27.7917 25.6583 28.475 24.975C29.1583 24.2917 29.5 23.4667 29.5 22.5C29.5 21.5333 29.1583 20.7083 28.475 20.025C27.7917 19.3417 26.9667 19 26 19C25.0333 19 24.2083 19.3417 23.525 20.025C22.8417 20.7083 22.5 21.5333 22.5 22.5C22.5 23.4667 22.8417 24.2917 23.525 24.975C24.2083 25.6583 25.0333 26 26 26Z" fill="#A20000"/>
</svg>
