<svg width="50" height="50" viewBox="0 0 50 50" fill="none" xmlns="http://www.w3.org/2000/svg">
<circle opacity="0.15" cx="25" cy="25" r="25" fill="#FCC43E"/>
<path fill-rule="evenodd" clip-rule="evenodd" d="M25 18C24.5404 18 24.0852 18.0905 23.6606 18.2664C23.236 18.4423 22.8501 18.7001 22.5251 19.0251C22.2001 19.3501 21.9423 19.736 21.7664 20.1606C21.5905 20.5852 21.5 21.0404 21.5 21.5C21.5 21.9596 21.5905 22.4147 21.7664 22.8394C21.9423 23.264 22.2001 23.6499 22.5251 23.9749C22.8501 24.2999 23.236 24.5577 23.6606 24.7336C24.0852 24.9095 24.5404 25 25 25C25.9283 25 26.8185 24.6312 27.4749 23.9749C28.1313 23.3185 28.5 22.4282 28.5 21.5C28.5 20.5717 28.1313 19.6815 27.4749 19.0251C26.8185 18.3687 25.9283 18 25 18ZM23.5 26C22.4391 26 21.4217 26.4214 20.6716 27.1716C19.9214 27.9217 19.5 28.9391 19.5 30C19.5 30.5304 19.7107 31.0391 20.0858 31.4142C20.4609 31.7893 20.9696 32 21.5 32H28.5C29.0304 32 29.5391 31.7893 29.9142 31.4142C30.2893 31.0391 30.5 30.5304 30.5 30C30.5 28.9391 30.0786 27.9217 29.3284 27.1716C28.5783 26.4214 27.5609 26 26.5 26H23.5ZM30.32 22.904C30.6379 21.6933 30.5341 20.4105 30.0257 19.2667C29.5174 18.1229 28.6347 17.1863 27.523 16.611C27.9466 16.3215 28.4287 16.1287 28.9351 16.0462C29.4415 15.9637 29.9599 15.9936 30.4535 16.1337C30.947 16.2738 31.4038 16.5207 31.7913 16.857C32.1789 17.1932 32.4878 17.6105 32.6961 18.0794C32.9045 18.5483 33.0072 19.0572 32.997 19.5702C32.9868 20.0832 32.864 20.5877 32.6372 21.0479C32.4104 21.5081 32.0851 21.9129 31.6845 22.2334C31.2839 22.554 30.8178 22.7826 30.319 22.903L30.32 22.904ZM32.5 30H33C33.5304 30 34.0391 29.7893 34.4142 29.4142C34.7893 29.0391 35 28.5304 35 28C35 26.9391 34.5786 25.9217 33.8284 25.1716C33.0783 24.4214 32.0609 24 31 24H29.9C29.764 24.2664 29.6065 24.5212 29.429 24.762C30.3605 25.283 31.1362 26.0431 31.676 26.9638C32.2158 27.8846 32.5003 28.9327 32.5 30ZM17 19.5C16.9998 18.8628 17.1737 18.2376 17.5027 17.6919C17.8317 17.1462 18.3035 16.7007 18.8671 16.4034C19.4307 16.1061 20.0648 15.9683 20.7009 16.0049C21.3371 16.0415 21.9512 16.2511 22.477 16.611C21.3642 17.185 20.4807 18.1215 19.9723 19.2658C19.4639 20.41 19.3611 21.6934 19.681 22.904C18.9168 22.7201 18.2368 22.2842 17.7504 21.6667C17.2641 21.0492 16.9997 20.286 17 19.5ZM20.1 24H19C17.9391 24 16.9217 24.4214 16.1716 25.1716C15.4214 25.9217 15 26.9391 15 28C15 28.5304 15.2107 29.0391 15.5858 29.4142C15.9609 29.7893 16.4696 30 17 30H17.5C17.4997 28.9327 17.7842 27.8846 18.324 26.9638C18.8638 26.0431 19.6395 25.283 20.571 24.762C20.3935 24.5212 20.236 24.2664 20.1 24Z" fill="#EB996E"/>
</svg>
