<svg width="51" height="50" viewBox="0 0 51 50" fill="none" xmlns="http://www.w3.org/2000/svg">
<circle opacity="0.15" cx="25.8208" cy="25" r="25" fill="#EB996E"/>
<path d="M26.7187 20.8881C25.9896 21.4292 25.1063 21.7224 24.1983 21.725C23.2534 21.725 22.3865 21.4081 21.6772 20.8881C21.0678 21.3959 20.46 22.1231 19.9628 23.0193C18.8066 25.1017 18.679 27.2378 19.6784 27.7919C20.1237 28.0454 20.5933 27.8553 21.0775 27.3889C20.9868 27.8914 20.9414 28.401 20.9418 28.9115C20.9418 31.2987 21.8681 33.2275 23.008 33.2275C23.6954 33.2275 24.0358 32.5247 24.1992 31.4498C24.3617 32.5174 24.7029 33.2275 25.3854 33.2275C26.5205 33.2275 27.454 31.2979 27.454 28.9115C27.454 28.3753 27.4037 27.8634 27.3175 27.3897C27.805 27.8569 28.273 28.0503 28.7199 27.7935C29.7168 27.2394 29.5877 25.1042 28.4323 23.0209C27.9367 22.1239 27.3273 21.3975 26.7179 20.8897L26.7187 20.8881ZM24.1975 20.9125C24.6543 20.9123 25.1065 20.8222 25.5284 20.6473C25.9503 20.4723 26.3336 20.216 26.6564 19.893C26.9793 19.5699 27.2353 19.1864 27.4099 18.7644C27.5846 18.3424 27.6744 17.8901 27.6742 17.4334C27.6741 16.9766 27.5839 16.5244 27.409 16.1025C27.2341 15.6806 26.9778 15.2973 26.6547 14.9745C26.3316 14.6516 25.9481 14.3956 25.5261 14.2209C25.1041 14.0463 24.6518 13.9565 24.1951 13.9567C23.2725 13.957 22.3878 14.3238 21.7356 14.9764C21.0835 15.629 20.7173 16.514 20.7176 17.4366C20.7179 18.3592 21.0847 19.2439 21.7373 19.8961C22.39 20.5482 23.2749 20.9144 24.1975 20.9141V20.9125ZM32.8645 25.3569C34.0897 25.3569 35.0842 24.3624 35.0842 23.1355C35.0842 21.9086 34.0881 20.9125 32.8637 20.9125C32.2741 20.9127 31.7088 21.147 31.292 21.5638C30.8751 21.9807 30.6409 22.546 30.6407 23.1355C30.6411 23.725 30.8756 24.2902 31.2926 24.7069C31.7096 25.1236 32.275 25.3569 32.8645 25.3569ZM35.5701 26.7032C35.2532 26.1304 34.8648 25.6656 34.4748 25.3406C34.0198 25.6737 33.4673 25.8769 32.8637 25.8769C32.26 25.8769 31.705 25.6737 31.2525 25.3406C30.8625 25.6656 30.4741 26.1304 30.1556 26.7032C29.4162 28.034 29.335 29.399 29.9736 29.7533C30.258 29.9158 30.5586 29.7939 30.8673 29.4965C30.8114 29.8177 30.7831 30.1431 30.7828 30.4691C30.7828 31.9966 31.3743 33.2292 32.1032 33.2292C32.5419 33.2292 32.7613 32.7799 32.8653 32.0933C32.9693 32.7758 33.187 33.2284 33.6242 33.2284C34.3497 33.2284 34.9461 31.995 34.9461 30.4691C34.9461 30.1279 34.9136 29.7996 34.8583 29.4974C35.1695 29.7955 35.4693 29.9199 35.7553 29.7549C36.3907 29.4023 36.3078 28.0365 35.5701 26.7056V26.7032Z" fill="#FB7D5B"/>
</svg>
